<svg width="57" height="62" viewBox="0 0 57 62" fill="none" xmlns="http://www.w3.org/2000/svg">
<path d="M23.5 29V19.5V19L31 11.5L39 19.5L38.5 29H23.5Z" fill="#232433"/>
<path d="M22.4842 20.2184H22.6059V29.1642C22.6059 29.5539 22.9221 29.8701 23.3118 29.8701C28.3816 29.8701 33.5507 30.0396 38.6951 30.0047C39.0747 30.002 39.384 29.6996 39.3955 29.3204C39.485 26.412 39.4303 23.4383 39.5101 20.2184H39.6542C40.2618 20.2184 40.5864 19.4977 40.1813 19.0433C37.4281 15.9496 34.691 13.5139 31.5218 10.6941C31.2525 10.4537 30.8449 10.4569 30.5774 10.6991C26.8192 14.1215 24.5678 16.3002 21.9731 19.0259C21.545 19.4753 21.8658 20.2184 22.4842 20.2184ZM31.0586 12.1711C33.5848 14.4211 35.8403 16.4505 38.0526 18.8067H24.1432C26.1666 16.7294 28.151 14.8278 31.0586 12.1711ZM24.0177 20.2184H38.0982C38.0211 23.355 38.0688 25.7803 38.003 28.5966C36.7854 28.6019 35.5443 28.5942 34.3011 28.5815C34.3588 27.3982 34.3808 26.1065 33.974 24.8903C33.514 23.5148 32.2893 22.1192 30.6983 22.2763C29.2516 22.4266 28.2741 23.8324 27.9474 25.1591C27.6703 26.2818 27.742 27.4333 27.8486 28.4943C26.5603 28.4774 25.2782 28.4632 24.0177 28.4592V20.2184Z" fill="#727278"/>
<path d="M32.013 14.7973C30.9937 14.0384 29.6662 14.4606 29.2281 15.6856C28.9905 16.3515 29.1752 17.113 29.6771 17.5372C30.3728 18.1251 31.5315 17.973 32.1789 17.3658C32.9706 16.625 32.8725 15.4385 32.013 14.7973Z" fill="#727278"/>
<path d="M31.6487 37.6122C40.185 37.6122 47.1298 30.6679 47.1298 22.1315C47.1298 13.5952 40.185 6.65039 31.6487 6.65039C23.1124 6.65039 16.168 13.5952 16.168 22.1315C16.168 30.6679 23.1124 37.6122 31.6487 37.6122ZM31.6487 8.06216C39.4065 8.06216 45.7181 14.3737 45.7181 22.1315C45.7181 29.8894 39.4065 36.2005 31.6487 36.2005C23.8909 36.2005 17.5797 29.8894 17.5797 22.1315C17.5797 14.3737 23.8909 8.06216 31.6487 8.06216Z" fill="#727278"/>
<path d="M23.09 50.188C27.1203 55.2324 29.7452 59.4127 31.571 60.1568C32.4604 61.4718 53.5849 61.3881 53.5849 60.092C53.5849 58.9713 41.2863 59.0437 38.6552 59.1364C40.8136 57.9629 42.3116 55.8536 43.7024 53.8115C50.2494 44.1976 56.9743 33.8183 56.6339 21.8551C56.4677 16.0111 54.6598 11.0258 50.5162 6.90149C47.1836 3.58446 42.0662 2.35029 37.956 1.44336L38.1278 1.44606C32.3864 -0.0102617 24.5644 1.39015 18.5822 6.09697C13.4682 10.1218 10.3069 16.4747 10.3322 22.6769C10.3688 31.5516 17.5637 43.2721 23.09 50.188ZM19.4553 7.20635C40.1928 -9.1145 71.9501 16.5618 34.2214 57.6884C33.3124 58.6778 32.8101 59.1158 32.1212 58.8617C30.8288 58.3842 27.5817 53.5469 24.1929 49.3065C18.9286 42.7186 11.7788 31.1874 11.7439 22.6714C11.7205 16.8938 14.675 10.9683 19.4553 7.20635Z" fill="#727278"/>
<path d="M0.879566 16.4968L7.48526 18.2624C7.86961 18.3636 8.2504 18.1331 8.34969 17.7629C8.45034 17.3861 8.22653 16.9991 7.85015 16.8985L1.24354 15.1328C0.868077 15.034 0.480669 15.256 0.379566 15.6328C0.278922 16.0092 0.502727 16.3962 0.879566 16.4968Z" fill="#727278"/>
<path d="M2.77678 10.2136L7.77861 13.1672C8.11701 13.3661 8.54816 13.2516 8.74553 12.9181C8.9436 12.5826 8.83238 12.1497 8.49645 11.9512L3.49461 8.99758C3.16097 8.80135 2.72714 8.91119 2.5277 9.24666C2.32963 9.5826 2.4413 10.015 2.77678 10.2136Z" fill="#727278"/>
<path d="M10.2449 8.83674C10.4382 9.17482 10.8699 9.29236 11.2082 9.09869C11.5464 8.90522 11.6636 8.47415 11.4701 8.13546L8.74033 3.36294C8.54686 3.02516 8.11717 2.90751 7.7771 3.10099C7.43886 3.29446 7.32168 3.72553 7.51515 4.06422L10.2449 8.83674Z" fill="#727278"/>
</svg>
