<svg width="246" height="9" viewBox="0 0 246 9" fill="none" xmlns="http://www.w3.org/2000/svg">
<g clip-path="url(#clip0_379_5754)">
<path d="M53.5401 1.83233C76.9075 1.56873 100.288 1.39927 123.668 1.32396C147.048 1.24864 170.212 1.27375 193.477 1.39299C206.694 1.46203 219.923 1.55617 233.14 1.6817L234.933 0.395087C204.76 0.652409 174.6 0.972493 144.44 1.35534C114.28 1.73818 84.1199 2.18379 53.9598 2.69843C37.029 2.98714 20.1108 3.28839 3.17996 3.61475C2.18777 3.63358 0.69948 3.7591 0.139782 4.23609C-0.381755 4.6817 0.584996 4.91391 1.38638 4.90136C32.8185 4.50597 64.2761 4.46831 95.7209 4.79467C127.166 5.12103 158.585 5.81768 189.966 6.87207C207.597 7.46203 225.215 8.17124 242.807 8.99341C243.761 9.03735 245.338 8.80513 245.847 8.37207C246.407 7.90136 245.364 7.73818 244.601 7.7068C213.296 6.24446 181.914 5.13986 150.508 4.39927C119.101 3.65868 87.6435 3.28839 56.1986 3.28212C38.53 3.28212 20.8613 3.38881 3.19268 3.61475L1.3991 4.90136C31.5465 4.31768 61.7066 3.80304 91.8667 3.34488C122.027 2.89299 152.187 2.4976 182.347 2.17124C199.278 1.98923 216.221 1.81977 233.152 1.67542C234.144 1.66915 235.645 1.52479 236.192 1.05408C236.739 0.583371 235.734 0.395087 234.946 0.388811C211.553 0.175422 188.186 0.0436224 164.805 0.0122417C141.425 -0.0191391 118.262 0.0373463 94.9959 0.19425C81.7794 0.282116 68.5501 0.401363 55.3336 0.551991C54.3414 0.564543 52.8404 0.702618 52.2935 1.17333C51.7719 1.61894 52.7387 1.85115 53.5401 1.8386V1.83233Z" fill="#FD732E"/>
</g>
<defs>
<clipPath id="clip0_379_5754">
<rect width="246" height="9" fill="white"/>
</clipPath>
</defs>
</svg>
