<svg width="30" height="24" viewBox="0 0 30 24" fill="none" xmlns="http://www.w3.org/2000/svg">
<g clip-path="url(#clip0_379_5758)">
<path d="M2.0414 15.368C5.85454 10.2908 9.88414 5.3766 14.0747 0.58747C14.3966 0.217821 13.7972 0.0166886 13.5197 0.000380595C13.0257 -0.0267995 12.4984 0.185205 12.1765 0.543982C7.91929 5.28962 3.90634 10.2418 0.0821059 15.3245C-0.217617 15.7213 0.337425 15.9116 0.653799 15.9279C1.12558 15.9496 1.75278 15.7539 2.0414 15.368Z" fill="#FDDC2E"/>
<path d="M7.73644 18.6013C10.0454 17.1227 12.3544 15.6441 14.6578 14.1601C14.9298 13.9861 15.2628 13.6002 14.8354 13.3882C14.408 13.1762 13.7642 13.3447 13.3979 13.573C11.0778 15.0461 8.76327 16.5193 6.4432 17.9979C6.16568 18.1773 5.82155 18.5741 6.26003 18.7916C6.69852 19.009 7.35902 18.8405 7.73089 18.6013H7.73644Z" fill="#FDDC2E"/>
<path d="M13.1162 23.9295C18.4446 22.2117 23.7786 20.5048 29.107 18.7707C29.4012 18.6783 30.1061 18.4283 29.9895 18.0043C29.8785 17.602 29.107 17.6835 28.835 17.7705C23.5011 19.472 18.1727 21.1898 12.8387 22.9075C12.539 23.0054 11.8175 23.2554 11.9396 23.6903C12.0506 24.098 12.8387 24.0165 13.1218 23.9241L13.1162 23.9295Z" fill="#FDDC2E"/>
</g>
<defs>
<clipPath id="clip0_379_5758">
<rect width="30" height="24" fill="white"/>
</clipPath>
</defs>
</svg>
