<svg width="306" height="25" viewBox="0 0 306 25" fill="none" xmlns="http://www.w3.org/2000/svg">
<path d="M23.014 24.9317C33.6731 24.1999 44.3442 23.6525 54.9972 22.9022C59.6495 22.5763 64.4476 22.6993 69.0452 21.2048C70.6001 20.7005 72.4464 21.1125 74.1591 21.0941C77.7911 21.0572 81.4292 20.9034 85.055 21.0326C86.6342 21.0879 87.9157 20.27 89.4401 20.147C92.9749 19.8518 96.4975 20.4114 100.02 20.0916C102.213 19.8948 104.448 20.3684 106.616 19.5197C107.667 19.1076 108.736 19.8456 109.829 19.9502C114.931 20.4237 119.875 19.1261 124.897 18.8309C125.59 18.7878 126.234 18.6095 126.974 18.7325C130.224 19.2675 133.449 19.0338 136.71 18.5049C138.879 18.1482 141.053 19.1445 143.294 19.0277C145.402 18.917 147.521 19.083 149.623 18.6525C150.297 18.5111 151.044 18.5172 151.724 18.6464C156.133 19.4828 160.585 19.083 165.025 19.206C167.175 19.2675 169.125 18.2528 171.305 18.468C174.494 18.7817 177.707 18.8985 180.913 18.9539C186.094 19.04 191.275 19.0031 196.462 19.0154C196.966 19.0154 197.512 19.1322 197.974 18.9785C202.918 17.3364 208.001 18.6218 212.994 18.1913C218.247 17.7423 223.477 18.6894 228.718 18.0929C229.951 17.9514 231.366 17.5332 232.393 18.8063C232.623 19.0892 232.854 18.9969 233.164 18.8555C236.037 17.5394 239.134 18.0068 242.098 18.0191C248.415 18.0437 254.737 18.056 261.054 18.1913C265.19 18.2774 269.435 18.1298 273.626 17.8223C274.124 17.7854 274.652 17.9453 275.047 17.5148C276.899 15.5037 279.359 16.0633 281.618 16.0449C283.058 16.0326 284.4 16.0264 285.718 15.3376C286.417 14.9748 287.291 14.6734 288.038 14.7595C290.771 15.0793 293.213 13.8309 295.812 13.4803C296.195 13.4311 296.663 12.9268 296.899 13.0437C299.687 14.3598 302.062 11.8751 304.728 12.2134C304.977 12.2442 305.408 12.0658 305.493 11.869C305.578 11.6722 305.269 11.4385 305.014 11.2478C303.544 10.1654 301.527 10.6513 300.124 9.43972C299.906 9.24907 299.724 9.29827 299.687 9.54428C299.268 12.6132 297.628 10.1962 297.027 9.91328C295.229 9.07072 293.444 9.54427 291.664 9.43357C289.714 9.31672 287.643 10.1347 285.912 8.51106C285.487 8.11746 285.032 8.55411 284.564 8.70172C283.058 9.16912 281.497 9.87638 279.924 9.05227C278.655 8.38806 277.519 7.3364 277.088 9.88868C276.997 10.4299 275.812 10.7312 274.962 10.1347C271.949 8.01906 270.431 7.92681 266.714 8.78782C265.159 9.14452 263.459 8.80012 261.794 8.92927C258.211 9.21217 254.597 8.73247 250.99 8.75707C249.726 8.76322 248.5 8.57257 247.157 8.73862C245.773 8.91082 244.643 7.53935 243.714 6.53074C242.663 5.38683 242.062 5.07318 240.914 6.45694C240.24 7.2749 239.092 7.66851 237.762 7.2872C236.116 6.8198 234.16 7.92681 232.684 6.34624C231.22 8.18511 230.085 5.68819 228.797 6.03874C227.194 6.47539 225.839 5.81734 224.394 5.41758C223.635 5.20233 222.596 4.89483 222.043 5.22693C219.966 6.47539 217.95 5.63284 216.298 4.80873C214.451 3.88007 212.623 5.34993 210.977 4.24907C210.364 5.99569 208.651 5.21463 207.564 5.49753C205.487 6.03874 203.027 6.8444 201.235 4.47662C201.041 4.21832 200.494 4.09532 200.13 4.13222C196.905 4.46432 193.729 3.31426 190.497 3.81242C189.805 3.91697 189.119 4.03997 188.475 3.51106C188.189 3.27736 187.619 3.01906 187.394 3.15436C185.098 4.48277 183.319 3.12361 181.636 1.94895C179.365 0.368383 176.814 0.306883 174.263 0.0670302C173.759 0.0178297 173.188 -0.0928714 172.757 0.0854804C168.22 1.97355 163.683 0.626686 159.128 0.239232C155.945 -0.0313708 152.793 -0.271223 149.519 0.546735C146.549 1.28474 143.179 1.48769 140.233 0.817338C138.296 0.374533 136.619 0.718937 134.828 0.651286C133.856 0.614386 132.708 1.81365 131.906 0.257682C131.858 0.159281 131.323 0.214632 131.092 0.337633C129.124 1.38314 127.181 0.921889 125.213 0.356083C124.739 0.220782 123.986 -0.0252207 123.774 0.190031C122.377 1.6353 120.682 0.878838 119.194 0.786587C116.461 0.614386 113.71 0.479084 111.013 0.712787C103.944 1.34009 96.868 0.817338 89.7985 1.02644C86.7738 1.11869 83.7857 1.38314 80.7854 1.91205C77.8336 2.42865 74.8029 2.71156 71.7783 2.71156C66.7251 2.71156 61.7995 3.95387 56.7707 4.35977C52.0212 4.74108 47.2231 5.33763 42.5708 6.77675C40.7305 7.3487 38.5865 6.9428 36.5823 6.96125C33.2479 6.99815 30.0836 7.65006 26.8525 8.62792C23.2144 9.72878 19.4792 10.4483 15.9688 12.0227C15.1124 12.4102 13.9402 12.3549 12.9745 12.1765C10.4601 11.7091 8.33432 13.3635 5.91705 13.3143C5.65591 13.3081 5.30972 13.5295 5.13965 13.7509C4.21649 14.9563 3.34189 16.0572 1.98749 14.1753C1.85388 13.9846 1.21616 14.0277 0.876038 14.3475C0.548096 14.655 0.463043 15.0855 0.554169 15.4668C0.693848 16.0695 1.08255 16.5307 1.57449 16.9366C3.56662 18.5541 5.92923 19.5812 8.33432 19.9071C10.9217 20.2638 13.4422 21.0695 16.0781 21.0879C16.406 21.0879 16.7644 21.174 16.7704 21.4938C16.7826 21.8382 16.3817 21.7706 16.1206 21.8013C15.8169 21.8321 15.5071 21.8198 15.2156 21.8997C14.2014 22.2011 14.2014 22.8776 14.8816 23.4373C15.7319 24.1384 16.7219 24.6242 17.8758 24.7349C19.5825 24.9071 21.2892 25.1039 23.014 24.9317Z" fill="#85C7F2"/>
</svg>
