<svg width="16" height="14" viewBox="0 0 16 14" fill="none" xmlns="http://www.w3.org/2000/svg">
<path fill-rule="evenodd" clip-rule="evenodd" d="M3.50003 12.6987C3.50312 12.4347 3.75217 12.2229 4.05629 12.2256C6.57172 12.2478 9.07722 12.3729 11.5733 12.4976C11.891 12.5135 12.2086 12.5293 12.526 12.545C12.8296 12.5599 13.0618 12.7857 13.0446 13.0492C13.0273 13.3128 12.7672 13.5143 12.4635 13.4993C12.1453 13.4836 11.8275 13.4678 11.51 13.4519C9.01088 13.3271 6.53265 13.2034 4.0451 13.1814C3.74098 13.1788 3.49694 12.9626 3.50003 12.6987Z" fill="#FD732E" stroke="#FD732E" stroke-width="0.5" stroke-linecap="round"/>
<path fill-rule="evenodd" clip-rule="evenodd" d="M15.4833 6.50361C15.5552 6.78311 15.3781 7.06578 15.0878 7.13498C14.5401 7.26555 13.9927 7.39542 13.4457 7.52519C10.249 8.28357 7.06728 9.03841 3.91777 9.91051C3.63039 9.99009 3.33043 9.83027 3.24779 9.55355C3.16515 9.27682 3.33112 8.98799 3.6185 8.90841C6.78973 8.03029 9.99424 7.27008 13.1901 6.51192C13.7363 6.38236 14.2822 6.25285 14.8276 6.12282C15.1179 6.05363 15.4114 6.22411 15.4833 6.50361Z" fill="#FD732E" stroke="#FD732E" stroke-width="0.5" stroke-linecap="round"/>
<path fill-rule="evenodd" clip-rule="evenodd" d="M8.83682 0.684326C9.02044 0.897693 8.98542 1.21068 8.75859 1.38341L1.3609 7.01671C1.13407 7.18944 0.801342 7.15649 0.617723 6.94312C0.434103 6.72976 0.469128 6.41677 0.695952 6.24404L8.09365 0.610738C8.32047 0.438013 8.6532 0.470959 8.83682 0.684326Z" fill="#FD732E" stroke="#FD732E" stroke-width="0.5" stroke-linecap="round"/>
</svg>
