<svg width="513" height="8" viewBox="0 0 513 8" fill="none" xmlns="http://www.w3.org/2000/svg">
<path d="M306.844 0.00824529C252.072 0.454597 197.24 0.909533 142.468 1.35588C138.876 1.38164 132.052 1.7164 130.795 2.27434C129.538 2.83228 133.369 3.06404 136.901 3.05546C257.34 2.67777 378.138 2.30867 498.098 4.14558L503.725 2.42026C377.839 5.06404 250.635 6.36018 123.372 6.24859C87.2166 6.21425 51.0011 6.06833 14.9053 5.81082L9.21855 7.54473C122.893 6.12842 237.227 5.89666 351.201 6.83228C355.75 6.86661 362.993 6.59194 365.447 5.99108C367.902 5.39022 363.233 5.11554 359.581 5.08121C243.811 4.11983 127.682 4.37734 12.2116 5.82799C8.50023 5.87091 1.61629 6.1885 0.299366 6.76361C-1.01756 7.33872 2.99308 7.53614 6.52484 7.56189C135.404 8.46318 264.762 7.96533 393.103 6.05975C429.079 5.52756 464.995 4.8752 500.792 4.11983C504.503 4.04258 511.267 3.78507 512.644 3.18421C514.021 2.58335 509.89 2.44601 506.478 2.39451C386.399 0.566185 265.6 0.943868 145.161 1.33872L139.594 3.03829C194.367 2.58335 249.199 2.12842 303.971 1.68207C307.562 1.65631 315.344 1.27863 315.943 0.660606C316.541 -0.0260895 309.897 -0.00892209 306.844 0.016829V0.00824529Z" fill="#FDDC2E"/>
</svg>
