<svg width="150" height="10" viewBox="0 0 150 10" fill="none" xmlns="http://www.w3.org/2000/svg">
<path d="M87.5137 0.0103066C71.8923 0.568247 56.2537 1.13692 40.6323 1.69486C39.6079 1.72704 37.6617 2.1455 37.3031 2.84293C36.9446 3.54035 38.0373 3.83005 39.0446 3.81932C73.3947 3.34722 107.847 2.88584 142.061 5.18198L143.666 3.02533C107.762 6.33005 71.4825 7.95022 35.1861 7.81074C24.8743 7.76782 14.5454 7.58541 4.25056 7.26353L2.62866 9.43091C35.0496 7.66052 67.6582 7.37082 100.165 8.54035C101.462 8.58327 103.528 8.23992 104.228 7.48885C104.928 6.73777 103.596 6.39443 102.555 6.35151C69.5362 5.14979 36.4154 5.47168 3.4823 7.28499C2.42379 7.33863 0.460443 7.73563 0.0848452 8.45451C-0.290752 9.1734 0.853113 9.42018 1.8604 9.45237C38.6177 10.579 75.5117 9.95666 112.115 7.57468C122.376 6.90945 132.62 6.094 142.829 5.14979C143.887 5.05323 145.817 4.73134 146.209 3.98026C146.602 3.22919 145.424 3.05752 144.451 2.99314C110.203 0.707731 75.7507 1.17983 41.4006 1.6734L39.8128 3.79786C55.4343 3.22919 71.0728 2.66052 86.6942 2.10258C87.7186 2.07039 89.938 1.59829 90.1087 0.825757C90.2795 -0.0326119 88.3844 -0.0111526 87.5137 0.0210362V0.0103066Z" fill="#2E50FD"/>
</svg>
