<svg width="147" height="11" viewBox="0 0 147 11" fill="none" xmlns="http://www.w3.org/2000/svg">
<g clip-path="url(#clip0_379_10073)">
<path d="M31.9942 2.23864C45.9577 1.91647 59.9287 1.70935 73.8997 1.6173C87.8708 1.52525 101.713 1.55594 115.615 1.70168C123.513 1.78606 131.418 1.90112 139.316 2.05454L140.388 0.482016C122.358 0.796521 104.335 1.18773 86.3125 1.65566C68.29 2.12358 50.2675 2.66821 32.2451 3.29722C22.1278 3.65008 12.0182 4.01828 1.90098 4.41716C1.30809 4.44018 0.418744 4.59359 0.0842904 5.17658C-0.22736 5.72121 0.350333 6.00503 0.82921 5.98969C19.6118 5.50642 38.4096 5.4604 57.1999 5.85928C75.9901 6.25817 94.7651 7.10963 113.517 8.39833C124.053 9.11939 134.58 9.9862 145.093 10.9911C145.663 11.0448 146.605 10.761 146.909 10.2317C147.244 9.65635 146.621 9.45691 146.165 9.41856C127.458 7.63125 108.706 6.28118 89.9383 5.37602C71.1709 4.47086 52.3731 4.01828 33.5829 4.01061C23.0248 4.01061 12.4667 4.14101 1.90858 4.41716L0.836811 5.98969C18.8517 5.2763 36.8742 4.64729 54.8967 4.08732C72.9192 3.53501 90.9417 3.05175 108.964 2.65287C119.081 2.43041 129.206 2.2233 139.323 2.04687C139.916 2.0392 140.813 1.86277 141.14 1.28746C141.467 0.712141 140.866 0.482016 140.395 0.474345C126.417 0.213536 112.453 0.0524482 98.4821 0.014094C84.511 -0.0242603 70.6692 0.0447774 56.7666 0.236549C48.8689 0.343941 40.9637 0.489687 33.066 0.673787C32.4731 0.689129 31.5761 0.857888 31.2493 1.4332C30.9376 1.97783 31.5153 2.26165 31.9942 2.24631V2.23864Z" fill="#FD732E"/>
</g>
<defs>
<clipPath id="clip0_379_10073">
<rect width="147" height="11" fill="white"/>
</clipPath>
</defs>
</svg>
