<svg width="16" height="16" viewBox="0 0 16 16" fill="none" xmlns="http://www.w3.org/2000/svg">
<g clip-path="url(#clip0_379_10286)">
<path d="M3.06549 9.01493C4.36341 11.0448 5.65373 13.0746 6.92887 15.1194C7.30079 15.7015 6.61768 16 6.10155 16C5.43362 16 4.47726 15.7761 4.08257 15.1791C2.74671 13.1493 1.42603 11.1194 0.112933 9.08209C-0.274164 8.47761 0.454489 8.16418 0.970618 8.16418C1.65373 8.16418 2.67081 8.39552 3.06549 9.01493Z" fill="white"/>
<path d="M6.76453 6.02258C8.82905 6.93303 10.886 7.85094 12.9429 8.77631C13.3224 8.94795 14.2105 9.47034 13.7475 9.97034C13.2845 10.4703 12.237 10.2091 11.7437 10.0002C9.66396 9.10467 7.59186 8.20168 5.51216 7.29124C5.21615 7.16437 4.85182 6.96288 4.66966 6.68676C4.54821 6.50019 4.48749 6.22407 4.66966 6.05243C5.17061 5.58228 6.20286 5.77631 6.74935 6.02258H6.76453Z" fill="white"/>
<path d="M9.36476 0.0143373C10.9966 0.178517 12.6361 0.342696 14.268 0.514337C14.6551 0.559114 15.0877 0.693442 15.4141 0.894935C15.6114 1.01434 15.953 1.26807 15.9909 1.5218C16.082 2.19344 15.1181 2.2009 14.6778 2.16359C13.046 2.0218 11.4141 1.86508 9.78221 1.7009C9.38753 1.66359 8.93971 1.51434 8.60574 1.30538C8.4084 1.18598 8.05166 0.924786 8.01371 0.656129C7.92263 -0.0304382 8.90935 -0.0453644 9.35717 -0.000588417L9.36476 0.0143373Z" fill="white"/>
</g>
<defs>
<clipPath id="clip0_379_10286">
<rect width="16" height="16" fill="white" transform="matrix(1 0 0 -1 0 16)"/>
</clipPath>
</defs>
</svg>
