<svg width="65" height="64" viewBox="0 0 65 64" fill="none" xmlns="http://www.w3.org/2000/svg">
<path d="M13.998 38.5V9.5L46.498 9L46.998 38.5L31.498 39.5L28.998 37L26.498 36H23.498L22.998 37.5L23.998 39.5L13.998 38.5Z" fill="#232433"/>
<path d="M32.498 32L36.998 33.5L41.998 30L43.498 27V25L41.498 24C40.998 23.8333 39.898 23.5 39.498 23.5C39.098 23.5 37.6647 24.5 36.998 25L35.998 24C35.1647 23.8333 33.398 23.5 32.998 23.5C32.598 23.5 31.498 24.5 30.998 25L30.498 28L32.498 32Z" fill="#FDDC2E"/>
<path d="M45.9068 6.10063C46.2877 6.10063 46.6062 5.80181 46.6259 5.41713L46.8009 2.00383C46.8211 1.60648 46.5157 1.26778 46.1179 1.24761C45.7313 1.2326 45.3818 1.5333 45.3616 1.93064L45.1867 5.34301C45.1653 5.75472 45.4937 6.10063 45.9068 6.10063Z" fill="#727278"/>
<path d="M49.9619 6.94833C51.0442 5.37209 51.913 3.65794 52.5453 1.85324C52.6767 1.47747 52.4787 1.06653 52.1034 0.934705C51.7267 0.804291 51.3162 1.00179 51.1849 1.37661C50.5952 3.06122 49.7836 4.66138 48.7741 6.133C48.5489 6.46092 48.632 6.90939 48.9603 7.13457C49.2845 7.35841 49.7356 7.27896 49.9619 6.94833Z" fill="#727278"/>
<path d="M32.7019 32.3968C33.9413 33.2816 35.3308 33.8694 36.6744 34.438C36.8705 34.5212 37.0986 34.5139 37.2945 34.4098C39.3549 33.3093 41.0747 31.9385 42.551 30.2192C47.2715 24.7239 40.7118 20.6772 37.2626 24.3524C37.1129 24.5129 36.8808 24.4445 36.7485 24.2853C35.1924 22.4116 32.5088 22.4474 30.9427 23.9335C28.8924 25.8802 29.0348 29.777 32.7019 32.3968ZM31.9353 24.9782C32.8998 24.0617 34.6125 23.9674 35.6395 25.2057C36.3516 26.0632 37.5938 26.1042 38.3135 25.3385C38.8576 24.7591 39.5815 24.4031 40.3002 24.3623C41.4411 24.2933 42.6439 25.2165 42.7748 26.295C42.8789 27.1507 42.4478 28.1274 41.458 29.28C40.1716 30.7774 38.6831 31.9887 36.9155 32.9748C35.7455 32.478 34.5563 31.9502 33.5392 31.224C30.6501 29.1611 30.5219 26.3209 31.9353 24.9782Z" fill="#727278"/>
<path d="M24.3955 23.406C24.7933 23.406 25.116 23.0832 25.116 22.6854C25.116 22.2876 24.7933 21.9648 24.3955 21.9648H17.9432C17.5454 21.9648 17.2227 22.2876 17.2227 22.6854C17.2227 23.0832 17.5454 23.406 17.9432 23.406H24.3955Z" fill="#727278"/>
<path d="M18.6649 25.5088C18.2671 25.5088 17.9443 25.8315 17.9443 26.2294C17.9443 26.6272 18.2671 26.9499 18.6649 26.9499H20.2735C20.6713 26.9499 20.9941 26.6272 20.9941 26.2294C20.9941 25.8315 20.6713 25.5088 20.2735 25.5088H18.6649Z" fill="#727278"/>
<path d="M23.983 29.3143C23.983 28.9165 23.6603 28.5938 23.2625 28.5938H18.5985C18.2007 28.5938 17.8779 28.9165 17.8779 29.3143C17.8779 29.7121 18.2007 30.0349 18.5985 30.0349H23.2625C23.6603 30.0349 23.983 29.7121 23.983 29.3143Z" fill="#727278"/>
<path d="M51.4502 10.0549C52.6474 9.5436 53.7259 8.82256 54.6562 7.91201C54.9409 7.63335 54.9456 7.17737 54.6674 6.89308C54.3883 6.60739 53.9318 6.60317 53.6485 6.88182C52.8463 7.66713 51.916 8.28871 50.8844 8.72921C50.3672 8.95071 50.3531 9.51257 50.6129 9.85112C50.7895 10.0812 51.0926 10.2082 51.4502 10.0549Z" fill="#727278"/>
<path d="M33.998 8.5C31.1647 8.66667 25.498 8.9 25.498 8.5V18.5L29.498 15L33.498 19L33.998 8.5Z" fill="#FDDC2E"/>
<path d="M3.96869 42.0824C4.17739 43.1371 4.75441 44.0444 5.36778 44.8991C12.8904 55.3805 27.3075 60.9739 43.5195 57.2559C43.3768 58.4724 43.2037 59.7265 43.0529 60.9531C42.9877 61.4831 43.4312 61.9611 44.0777 62.0837C46.0257 62.4528 47.8845 62.8395 49.867 63.0834C51.1257 63.2383 51.8582 62.5177 52.604 62.1829C52.6735 62.1929 52.8302 62.2153 52.9004 62.2153C53.7869 62.2153 53.8831 60.9106 53.0041 60.7817C50.5587 60.4228 48.1434 60.1778 45.7032 59.8359C45.4776 55.1227 46.587 50.3382 48.926 45.9618C49.2455 45.3623 50.1547 45.0414 50.9981 45.2361C54.4169 46.0149 53.7899 46.1623 56.7139 46.8212C57.4757 46.9929 58.8333 47.2992 59.271 47.5741C57.7047 51.9585 57.5307 55.0497 56.3329 58.08C56.187 58.4502 56.3686 58.8691 56.7383 59.0155C57.1079 59.1599 57.5273 58.9798 57.6732 58.6101C58.8362 55.6683 59.2065 51.9702 60.6929 47.8786C61.2707 46.2879 58.6786 45.7872 57.031 45.4153C54.1419 44.7632 54.857 44.6372 51.3181 43.8306C49.8282 43.4928 48.2862 44.1013 47.6547 45.2825C47.4283 45.7062 47.2265 46.1378 47.0221 46.5684C44.8885 45.7548 42.7059 44.2099 40.67 43.3009C38.4909 42.3627 36.247 42.3764 34.595 41.4817C33.8319 41.0358 33.5836 40.7767 32.9744 40.1329C37.0653 40.156 41.6945 40.0789 45.7933 39.5968C46.7235 39.5968 47.4802 38.8448 47.4793 37.9535C47.9991 26.606 47.9986 17.4661 47.4802 10.0616C47.4802 9.1318 46.7245 8.37558 45.8327 8.37558H45.8308C35.9113 7.8572 25.6864 7.85627 15.477 8.37464C15.0639 8.37464 14.6899 8.52951 14.3965 8.77298L14.1026 8.90363C13.0512 9.71239 12.3922 11.4844 12.3853 12.8109C12.4277 37.9067 11.982 37.2056 12.658 37.9234C13.3254 38.6321 14.2991 39.2394 14.9558 39.4551C14.9546 39.4408 14.9539 39.4261 14.9526 39.4118C15.4194 39.5672 22.9859 39.877 23.2032 39.8859C26.73 44.5912 28.0862 46.4736 30.3281 48.3068C27.6403 48.0412 20.9675 45.7226 21.0764 45.7591C13.2899 42.3969 14.1042 42.511 9.19596 38.9996C8.43938 38.5542 6.91708 36.7495 5.23613 37.6697C4.48383 38.0829 4.08391 38.7735 4.20443 39.7449C3.82649 40.4613 3.83928 41.4281 3.96869 42.0824ZM33.3591 9.461L33.2562 17.2338L29.9042 14.271C29.6256 14.0247 29.2048 14.0313 28.9327 14.2865L26.2104 16.8525V9.48545C28.601 9.4491 30.9834 9.44001 33.3591 9.461ZM15.4817 38.0614C15.3461 38.0586 15.2316 37.946 15.2298 37.7611C14.6133 29.6271 14.6133 19.5481 15.2316 10.0616C15.2316 9.92836 15.3442 9.81577 15.5136 9.81483C18.6041 9.65827 21.6894 9.56538 24.7693 9.50375V18.5221C24.7693 19.1496 25.5219 19.4811 25.9843 19.0466L29.4426 15.7862C33.5292 19.2903 33.4063 19.4877 33.9022 19.5249C34.2183 19.5488 34.5924 19.3268 34.655 18.9242C34.6934 18.685 34.7411 13.4618 34.8002 9.47953C38.4893 9.53025 42.1631 9.62625 45.7933 9.81577C45.9195 9.81577 46.0391 9.9354 46.041 10.1118C46.557 17.5107 46.557 26.5961 46.0391 37.9206C46.0391 38.0459 45.9241 38.1557 45.7102 38.1604C42.0749 38.5831 37.4831 38.7549 31.6911 38.6834C30.0022 36.7038 28.0884 35.0262 25.4509 35.0262C23.4639 35.0653 22.0707 36.3323 22.4317 38.4107C20.2827 38.3187 18.0069 38.2048 15.4817 38.0614ZM5.92855 38.9335C6.63088 38.5491 7.71495 39.8099 8.40784 40.2043C10.1119 41.4344 14.6566 45.1852 20.6223 47.1271C23.4533 48.0786 30.6009 50.7229 32.6542 49.369C33.2116 49.0013 33.0208 48.123 32.3209 48.0609C31.9037 47.5249 30.3693 47.127 26.4938 41.8335C24.2503 38.7819 23.7231 38.4753 23.8081 37.6495C23.8577 36.8294 24.6363 36.4836 25.464 36.4673C28.6344 36.4673 30.4186 39.6757 32.3188 41.5338C34.7563 43.9713 37.3785 43.45 40.0911 44.621C42.0129 45.4783 44.1805 47.0095 46.4374 47.8872C45.5016 50.1342 44.8473 52.4539 44.5116 54.8006C44.4755 54.8088 44.439 54.8137 44.4048 54.8272C32.1516 55.4009 22.2079 55.6483 12.6407 47.8584C9.50757 45.3438 7.84408 43.0439 7.25475 42.3918C6.55581 41.5211 4.95282 39.4704 5.92855 38.9335Z" fill="#727278"/>
<path d="M50.8631 46.4967C49.9385 46.1691 48.7558 47.9 49.9089 48.9239C50.3319 49.2994 50.8996 49.4151 51.4201 49.3289C53.6697 48.9561 52.9473 46.0241 50.8631 46.4967Z" fill="#727278"/>
</svg>
