<svg width="65" height="64" viewBox="0 0 65 64" fill="none" xmlns="http://www.w3.org/2000/svg">
<path d="M11.9961 50.5L8.99609 46L10.4961 41.5L8.49609 32.5L7.99609 25L9.49609 15.5L13.4961 8C13.9961 8.16667 15.0961 8.6 15.4961 9C15.8961 9.4 15.6628 9.83333 15.4961 10L11.9961 20V29.5L14.4961 38.5L16.4961 40.5L19.4961 45L19.9961 50L16.4961 51L11.9961 50.5Z" fill="#232433"/>
<path d="M21.4961 39L15.4961 36L13.4961 35L15.4961 33.5L18.4961 32L21.4961 33L24.9961 35L27.9961 41L28.9961 44.5L27.9961 49L25.4961 51.5L22.4961 53L18.9961 52.5L22.4961 52L24.4961 48.5L23.9961 43.5L21.4961 39Z" fill="#727278"/>
<path d="M38.5 16L33.5 15.5L35.5 4.5L55.5 6L52.5 18.5L44 17L40.5 21L38.5 16Z" fill="#FDDC2E"/>
<path d="M43.4961 47.5L37.4961 43L36.9961 39.5L37.9961 34L41.9961 29.5L44.9961 29L49.4961 30C50.3294 31.1667 51.9961 33.6 51.9961 34C51.9961 34.4 52.3294 37.1667 52.4961 38.5L51.4961 43L48.4961 47L43.4961 47.5Z" fill="#14141E"/>
<path d="M47.9961 23L45.4961 17.5L49.9961 18L50.9961 20.5L51.9961 28L52.4961 34L48.4961 30L47.9961 23Z" fill="#232433"/>
<path d="M44.0585 33.567C43.8246 33.51 43.5667 33.56 43.3703 33.7299C39.3792 37.1609 40.7118 43.8036 44.8591 43.8036C46.7951 43.8036 48.7913 42.121 48.8274 38.4879C48.8434 36.8516 48.4641 35.5572 47.7004 34.6426C46.8798 33.655 45.3519 33.0612 44.0585 33.567Z" fill="#727278"/>
<path d="M9.26849 40.6867C8.41117 41.5973 8.04782 42.9901 7.99966 44.283C7.83144 48.8 10.4225 51.8268 13.4385 52.3069C13.9377 52.3863 14.4495 52.3774 14.9512 52.3026L15.5991 54.1134C15.433 54.2464 13.6987 55.6401 13.5782 55.7369C12.995 55.4231 12.4153 55.0994 11.8446 54.7483C11.4838 54.5264 11.011 54.6384 10.7886 55.0002C10.5662 55.3611 10.6791 55.8339 11.04 56.0558C16.8179 59.6111 23.4539 61.2805 30.1103 63.0897C33.5674 64.0383 37.6985 63.7247 41.3255 63.4936C44.9911 63.265 47.0975 61.5419 50.2167 59.5048C50.5241 59.6221 50.8451 59.6952 51.1903 59.6952C52.5005 59.6952 54.2529 58.7116 55.0141 57.875C56.8514 55.8571 55.3572 53.2344 53.036 53.185C50.9618 53.2096 49.0074 54.9246 49.0022 58.4557C49.0022 58.4594 49.0042 58.4624 49.0043 58.4661C46.2238 60.3044 44.3322 61.7669 41.2295 61.9612C37.8311 62.1773 33.7476 62.4956 30.5166 61.6084C25.2641 60.1732 19.9308 58.8276 15.0861 56.496C16.1307 55.6547 16.4483 55.399 16.9125 55.0292C17.0874 54.8899 17.3513 54.4544 17.2123 54.0666L16.4936 52.0564C16.7272 52.0487 16.9594 52.0242 17.1907 51.9822C17.2065 51.9969 17.2145 52.0169 17.2318 52.0305C19.1037 53.502 21.9336 53.7986 24.2773 52.7192C36.4768 47.0999 24.4267 24.8805 13.8159 33.6224C11.7977 25.5304 12.654 16.7661 16.3882 9.54471C16.6499 9.03752 16.479 8.62754 16.1188 8.43519L15.5559 8.13344C18.2647 2.94965 26.7486 -0.399832 35.522 3.46832C35.1233 3.4309 34.7486 3.70003 34.6838 4.10504C34.095 7.82443 33.5107 11.8248 32.9266 15.5102C32.8601 15.929 33.146 16.3218 33.5648 16.3888C33.9112 16.4401 32.3822 16.2338 37.8072 16.659C38.3476 18.3003 39.115 19.853 40.108 21.2707C40.34 21.6026 40.8112 21.7314 41.2062 21.4117C42.079 20.9427 43.0016 20.5738 43.9593 20.3389C44.2169 19.5232 44.2748 18.8173 44.4651 18.0328C44.7963 18.0875 45.1312 18.1418 45.4751 18.1955C46.6658 21.4737 47.3824 24.8814 47.6781 28.5416C42.7023 26.559 37.915 30.7047 36.4939 35.5965C34.5798 42.1843 38.1929 47.5888 43.5423 48.2924C50.1157 49.75 55.1594 41.933 52.9495 34.7078C53.2737 34.5989 53.502 34.2949 53.4763 33.9373C53.1086 28.8632 52.6852 23.9142 51.2321 19.0806C52.3505 19.271 52.277 19.2815 52.4202 19.2815C52.763 19.2815 53.064 19.0469 53.154 18.7085C53.7136 18.2837 54.273 17.8589 54.8325 17.4341C55.4556 14.0533 56.1882 10.5547 57.0516 7.22721C56.3074 5.94785 55.8236 4.97749 55.1124 5.15172C54.7186 5.07955 48.8444 4.61796 39.4162 3.83004C29.3208 -2.72234 17.8287 0.511242 14.2038 7.40869L14.0042 7.30167C13.5289 7.0497 12.8803 7.3516 12.8863 7.98501C5.91487 17.3138 6.35826 29.1118 9.26849 40.6867ZM47.7867 46.2176C43.2695 47.8352 38.1698 44.8309 38.1698 38.2474C38.1698 33.4595 41.26 29.5641 45.0579 29.5641C48.8558 29.5641 51.9459 33.4595 51.9459 38.2474C51.9459 41.8141 50.2306 44.8824 47.7867 46.2176ZM51.8018 32.1508C51.1272 31.0554 50.2788 30.1307 49.3026 29.4359C49.0737 25.5379 48.3849 21.9297 47.2055 18.4578C48.0035 18.5765 48.7773 18.6919 49.5396 18.8092C50.9428 23.1688 51.436 27.5244 51.8018 32.1508ZM54.289 6.60922C54.2851 6.62453 54.2792 6.64289 54.2754 6.65795C53.1244 10.6932 52.3378 14.1797 51.8045 17.5983C51.8029 17.6062 51.8016 17.6153 51.8 17.6233C49.1634 17.1611 45.6706 16.7211 43.2822 16.2678C42.8932 16.187 42.5317 16.4288 42.4173 16.7975L40.7337 19.4155C40.075 18.314 39.5503 17.1395 39.1694 15.91C39.0735 15.6003 38.5376 15.178 38.2183 15.1523C37.3606 15.0814 35.7506 14.9645 34.5778 14.8846C35.125 11.3915 35.5271 8.64659 36.0837 5.09306C40.2594 5.45585 49.2335 6.17229 54.289 6.60922ZM13.4459 41.1112C14.4156 41.1112 15.4171 41.3594 15.564 41.3731C17.5452 42.5426 18.9341 44.7826 19.0291 47.0756C19.159 50.1791 16.9333 51.2968 14.3591 50.0783C12.0346 48.9778 10.5027 46.3179 10.7166 43.756C10.863 41.9854 11.7356 41.1112 13.4459 41.1112ZM16.0306 39.8989C15.5424 38.8588 15.115 37.7929 14.7357 36.7108C22.2936 37.7886 27.3086 47.1484 21.1626 51.8245C20.3485 51.8071 19.5563 51.6184 18.8647 51.2558C21.821 49.0228 20.9566 42.5096 16.0306 39.8989ZM24.0209 51.1276C28.2665 44.7502 22.3769 35.8688 14.4301 35.1304C22.7129 26.935 33.8343 46.0467 24.0209 51.1276ZM14.231 39.6173C13.3166 39.5312 12.4318 39.5765 11.6415 39.8808C9.28641 29.3248 7.30573 18.1906 14.0151 9.0498L14.738 9.43732C10.162 18.73 9.98268 29.8747 14.231 39.6173Z" fill="#727278"/>
<path d="M49.5036 10.8536C49.5036 10.4298 49.1173 10.0859 48.6935 10.0859C48.2696 10.0859 47.9258 10.4298 47.9258 10.8536C47.9258 11.3489 48.3202 11.6136 48.7147 11.6222C49.1091 11.6307 49.5036 11.383 49.5036 10.8536Z" fill="#727278"/>
<path d="M44.3864 10.8536C44.3864 10.4298 44.0001 10.0859 43.5763 10.0859C43.1524 10.0859 42.8086 10.4298 42.8086 10.8536C42.8086 11.3759 43.2472 11.6418 43.6619 11.6213C44.0338 11.6028 44.3864 11.3542 44.3864 10.8536Z" fill="#727278"/>
<path d="M39.0153 10.8536C39.0153 10.4298 38.629 10.0859 38.2052 10.0859C37.7814 10.0859 37.4375 10.4298 37.4375 10.8536C37.4375 11.3739 37.8726 11.6397 38.2859 11.6215C38.6596 11.605 39.0153 11.3564 39.0153 10.8536Z" fill="#727278"/>
</svg>
