<svg width="19" height="18" viewBox="0 0 19 18" fill="none" xmlns="http://www.w3.org/2000/svg">
<path d="M4.09607 5.2921C4.09607 4.35535 4.85507 3.59635 5.79182 3.5956H6.56357C7.01132 3.5956 7.44032 3.41785 7.75832 3.10285L8.29757 2.56285C8.95832 1.89835 10.0323 1.89535 10.6968 2.5561L10.6976 2.55685L10.7043 2.56285L11.2443 3.10285C11.5623 3.4186 11.9913 3.5956 12.4391 3.5956H13.2101C14.1468 3.5956 14.9066 4.3546 14.9066 5.2921V6.06235C14.9066 6.5101 15.0836 6.93985 15.3993 7.25785L15.9393 7.79785C16.6038 8.4586 16.6076 9.5326 15.9468 10.1971L15.9461 10.1979L15.9393 10.2046L15.3993 10.7446C15.0836 11.0619 14.9066 11.4909 14.9066 11.9386V12.7104C14.9066 13.6471 14.1476 14.4061 13.2108 14.4061H13.2101H12.4376C11.9898 14.4061 11.5601 14.5839 11.2428 14.8996L10.7028 15.4389C10.0428 16.1034 8.96957 16.1071 8.30507 15.4479C8.30432 15.4471 8.30357 15.4464 8.30282 15.4456L8.29607 15.4389L7.75682 14.8996C7.43957 14.5839 7.00982 14.4069 6.56207 14.4061H5.79182C4.85507 14.4061 4.09607 13.6471 4.09607 12.7104V11.9371C4.09607 11.4894 3.91832 11.0604 3.60257 10.7431L3.06332 10.2031C2.39882 9.5431 2.39507 8.46985 3.05507 7.80535C3.05507 7.8046 3.05582 7.80385 3.05657 7.8031L3.06332 7.79635L3.60257 7.25635C3.91832 6.93835 4.09607 6.50935 4.09607 6.06085V5.2921" stroke="#14141E" stroke-width="1.5" stroke-linecap="round" stroke-linejoin="round"/>
<path d="M7.57422 10.9292L11.4292 7.07422" stroke="#14141E" stroke-width="1.5" stroke-linecap="round" stroke-linejoin="round"/>
<path d="M11.3716 10.875H11.3784" stroke="#14141E" stroke-width="2" stroke-linecap="round" stroke-linejoin="round"/>
<path d="M7.62162 7.125H7.62837" stroke="#14141E" stroke-width="2" stroke-linecap="round" stroke-linejoin="round"/>
</svg>
