<svg width="24" height="24" viewBox="0 0 24 24" fill="none" xmlns="http://www.w3.org/2000/svg">
<g clip-path="url(#clip0_943_598)">
<path d="M12 1.99921C6.477 1.99921 2 6.47621 2 11.9992C2 16.9902 5.657 21.1272 10.438 21.8782V14.8892H7.898V11.9992H10.438V9.79621C10.438 7.29021 11.93 5.90621 14.215 5.90621C15.309 5.90621 16.453 6.10121 16.453 6.10121V8.56121H15.193C13.95 8.56121 13.563 9.33221 13.563 10.1232V11.9992H16.336L15.893 14.8892H13.563V21.8782C18.343 21.1282 22 16.9892 22 11.9992C22 6.47621 17.523 1.99921 12 1.99921Z" fill="white"/>
</g>
<defs>
<clipPath id="clip0_943_598">
<rect width="24" height="24" fill="white"/>
</clipPath>
</defs>
</svg>
