<svg width="1372" height="12" viewBox="0 0 1372 12" fill="none" xmlns="http://www.w3.org/2000/svg">
<path d="M0.666667 6C0.666666 8.94552 3.05448 11.3333 6 11.3333C8.94552 11.3333 11.3333 8.94552 11.3333 6C11.3333 3.05448 8.94552 0.666667 6 0.666667C3.05448 0.666666 0.666667 3.05448 0.666667 6ZM1360.67 6.00012C1360.67 8.94564 1363.05 11.3335 1366 11.3335C1368.95 11.3335 1371.33 8.94564 1371.33 6.00012C1371.33 3.0546 1368.95 0.666786 1366 0.666785C1363.05 0.666785 1360.67 3.0546 1360.67 6.00012ZM6 7L1366 7.00012L1366 5.00012L6 5L6 7Z" fill="#252535"/>
</svg>
