<svg width="68" height="55" viewBox="0 0 68 55" fill="none" xmlns="http://www.w3.org/2000/svg">
<path d="M25.8484 12.6498C25.3009 12.7669 24.8951 12.8691 24.9024 12.1191C25.384 11.8649 25.78 11.7304 25.8484 12.6498Z" fill="#FDDC2E"/>
<path d="M32.0178 7.95615C32.7218 8.66129 32.8342 9.31161 32.4969 10.079C32.2622 10.6073 31.9298 10.8589 31.2943 10.6197C30.9276 9.58321 32.0153 8.99766 32.0178 7.95615Z" fill="#FDDC2E"/>
<path d="M59.5745 0.030297C58.4648 0.0477387 57.685 0.745407 57.1668 1.68975C56.8686 2.23293 56.8588 2.8708 56.8588 3.50369C56.8662 11.8882 56.8613 20.2751 56.8564 28.6596C56.871 29.0259 56.9248 29.3946 56.7586 29.8656C56.5215 29.4196 56.6168 29.0309 56.6046 28.6621C56.4017 27.7377 56.2037 26.8133 55.9935 25.8913C54.9351 21.2319 53.2045 16.8341 50.9654 12.6431C49.1175 9.17971 46.6951 6.20715 43.5003 3.93724C39.9487 1.41317 36.0181 0.0352804 31.6769 0.0128553C26.1037 -0.0170447 20.5306 0.022822 14.9574 0.0103637C11.3348 0.00288866 8.12048 1.07431 5.35834 3.53359C1.38379 7.07176 -0.212384 11.5244 0.787365 16.7619C2.09022 23.5691 7.80271 28.2559 14.4905 28.1588C15.588 28.1438 16.6905 28.2186 17.7831 28.1413C19.0957 28.0491 19.9415 28.7393 20.6234 29.731C21.1294 30.4611 20.9999 31.3132 20.9412 32.0732C20.1199 34.0316 18.6264 34.6421 16.7051 34.6247C12.3908 34.5873 8.07648 34.6845 3.76705 34.5848C1.55979 34.5325 0.406042 36.2442 0.467152 37.9834C0.545372 40.1811 0.481818 42.3837 0.491595 44.5839C0.49404 44.9053 0.388932 45.2491 0.662702 45.583C0.868029 45.5955 1.10513 45.6229 1.34468 45.6229C6.99851 45.6254 12.6548 45.6254 18.3111 45.6204C18.8391 45.6204 19.3768 45.6503 19.895 45.5606C24.5491 44.7458 28.0152 42.2317 30.2347 37.9535C30.6845 37.0839 31.0218 36.162 31.5156 35.26V45.4709C31.8944 45.6777 32.1853 45.6204 32.464 45.6204C34.7421 45.6254 37.0203 45.6304 39.2985 45.6229C40.9044 45.6154 41.6842 45.0099 42.2244 43.3779C42.217 37.206 42.2073 31.0342 42.1999 24.8623C42.1975 22.0866 42.1975 19.3108 42.2073 16.5351C42.2097 16.134 42.1241 15.7204 42.2879 15.3167C42.7792 16.0567 42.7206 16.8765 42.6961 17.6938C42.943 19.3233 43.2999 20.9304 43.7203 22.5201C44.5025 25.4752 45.5267 28.3432 46.8687 31.0865C48.1764 33.7625 49.7237 36.2916 51.7428 38.4668C54.9082 41.8804 58.7019 44.2375 63.2435 45.2467C64.6637 45.5631 66.0912 45.7624 67.5603 45.5606V0.0178387C64.847 0.0178387 62.2096 -0.0095697 59.5745 0.030297ZM33.4368 10.9912C33.1435 11.8458 32.7842 12.6705 32.5838 13.5675C32.4347 14.2353 32.3467 14.9106 32.4933 15.5335C33.0164 17.766 32.6718 19.9686 32.3809 22.1713C32.2391 23.2327 32.0069 24.2817 31.936 25.3531C31.914 25.692 31.8138 25.9985 31.6158 26.3573C31.056 25.7095 31.298 24.7601 30.7383 24.1671C30.7187 24.2867 30.6992 24.4038 30.6576 24.6654C28.047 20.2851 24.0578 18.369 19.3817 17.5866C20.1712 17.3424 20.9632 17.5218 21.7381 17.4197C20.9974 16.9861 20.1737 17.3574 19.4037 17.158C19.4306 16.8491 19.8584 16.8566 19.873 16.5277C19.5675 16.428 19.2668 16.3781 19.0077 16.6547C18.58 17.1655 17.9957 17.1979 17.3993 17.1954H14.6421C14.1141 16.9338 13.5934 16.7145 13.1119 16.428C12.2441 15.9122 11.8335 14.7386 12.1195 13.7245C12.1659 13.4803 11.8775 13.2735 12.0926 12.9396C12.5179 12.4612 13.2194 12.9421 13.7523 12.6506C14.1287 12.0402 13.4394 11.6814 13.4321 11.1033C13.8256 10.8691 14.2754 10.9563 14.7007 10.9563C18.9295 10.9588 23.1607 10.9314 27.3895 11.0011C29.0883 11.0285 30.1663 10.2611 30.8091 8.75364C31.1122 8.04102 31.5009 7.34335 31.5082 6.52608C31.5107 6.36163 31.6011 6.20715 31.7625 6.12243C33.4906 7.0294 34.1262 8.98785 33.4368 10.9912Z" fill="#FDDC2E"/>
<path d="M51.6565 47.5512C49.5739 47.3319 48.0315 49.3078 48.0119 51.1641C47.9899 53.2945 50.0016 54.8543 51.5367 54.8717C53.5875 54.8966 55.1519 52.8809 55.1935 51.2912C55.2472 49.233 53.3749 47.307 51.6565 47.5512ZM51.632 53.7504C49.9185 53.3393 48.9774 52.3302 49.0752 50.9996C49.1632 49.7887 50.2827 48.6799 51.4854 48.6101C52.8126 48.5304 53.6926 49.4374 54.0935 51.3061C53.8515 52.6466 53.1475 53.5387 51.632 53.7504Z" fill="#FDDC2E"/>
<path d="M41.2773 54.7572C41.2773 52.3253 41.2773 49.9881 41.2773 47.5338C42.3895 48.0023 42.7537 49.0563 43.4748 49.729C44.213 50.4192 44.6212 51.4283 45.621 52.0562C45.621 50.5463 45.621 49.1509 45.621 47.8254C45.9412 47.5189 46.2052 47.5637 46.5572 47.7058C46.5572 50.023 46.5572 52.3677 46.5572 54.6949C46.1734 54.9142 45.9974 54.6226 45.8263 54.4158C45.0368 53.4715 44.2717 52.5047 43.4846 51.5579C43.1497 51.1542 42.7855 50.773 42.2649 50.1925C42.2649 51.822 42.2649 53.1999 42.2649 54.4258C41.9642 54.8818 41.6733 54.7821 41.2773 54.7572Z" fill="#FDDC2E"/>
<path d="M11.139 47.8148C11.5643 47.5333 11.8234 47.5383 12.1388 47.7451C12.1388 50.0549 12.1388 52.3945 12.1388 54.9784C10.3397 53.6578 9.47684 51.6994 7.81222 50.304C7.81222 51.794 7.81222 53.1346 7.81222 54.3281C7.51401 54.8115 7.24024 54.8787 6.83203 54.657C6.83203 52.3447 6.83203 50.005 6.83203 47.5607C7.93689 47.9619 8.31332 48.9959 9.00263 49.6886C9.71639 50.4062 10.1759 51.368 11.1366 52.0382C11.139 50.5632 11.139 49.1828 11.139 47.8148Z" fill="#FDDC2E"/>
<path d="M0 50.0968C0 49.723 0 49.3941 0 49.1126C0.175995 48.6641 0.476653 48.3751 0.782199 48.1084C1.87483 47.1541 4.00877 47.356 4.86186 48.4747C5.33362 49.0927 5.2334 49.4216 4.37298 49.8576C4.03321 49.449 3.78878 48.8908 3.23879 48.6666C1.63773 48.5345 1.27352 48.7687 1.24907 49.9672C1.62306 50.473 2.16816 50.5403 2.74992 50.6001C4.19454 50.7496 4.7763 51.238 5.30184 52.6607C4.90097 54.2106 4.31676 54.7463 2.93569 54.8335C1.3444 54.9331 0.576872 54.4522 0.0317768 53.0121C0.163773 52.6533 0.417988 52.5038 0.867752 52.5735C1.18063 53.336 1.85772 53.6424 2.68881 53.7496C3.60789 53.473 3.60789 53.473 4.12854 52.7853C4.02588 52.2023 3.67878 51.8858 3.07013 51.8235C2.75236 51.7911 2.43948 51.6416 2.12416 51.6342C1.1073 51.6092 0.496208 51.0162 0 50.0968Z" fill="#FDDC2E"/>
<path d="M56.3622 53.2173C56.4257 52.7265 56.6775 52.572 57.0491 52.5271C57.467 52.6791 57.4548 53.2398 57.8312 53.4441C58.1735 53.5587 58.5181 53.6733 58.8872 53.7979C59.4763 53.611 60.1705 53.601 60.4638 52.8411C60.349 52.1708 59.9041 51.9017 59.2832 51.817C58.8848 51.7622 58.4912 51.6625 58.0952 51.5878C57.1639 51.4158 56.5333 50.8851 56.3646 49.9233C56.2033 49.0064 56.5822 48.3137 57.3937 47.8777C57.5355 47.8004 57.6699 47.7057 57.7799 47.636C58.4179 47.5214 59.0265 47.5338 59.6352 47.5712C60.3343 47.6136 60.8574 47.9923 61.2632 48.5355C61.6885 49.1036 61.5931 49.3677 60.7718 49.876C60.3098 49.2381 59.8405 48.5405 58.9043 48.5903C58.2492 48.6252 57.7408 48.8993 57.401 49.4973C57.4426 50.023 57.8484 50.2398 58.2639 50.5338C59.447 50.5687 60.6667 50.6683 61.4049 51.9516C61.8327 53.459 61.1532 54.2489 60.0679 54.67C58.5743 55.253 57.2813 54.7622 56.3622 53.2173Z" fill="#FDDC2E"/>
<path d="M67.6792 53.5339C67.9016 53.9774 68.1656 54.2415 67.8356 54.6726C67.1732 54.9492 66.3983 54.7648 65.6479 54.7972C64.8828 54.8271 64.1177 54.8046 63.2695 54.8046C63.2695 52.3802 63.2695 50.0455 63.2695 47.6486C64.7997 47.6486 66.2859 47.6486 67.7501 47.6486C68.0703 47.9401 68.1094 48.2216 67.6792 48.6228C66.6819 48.6228 65.5575 48.6228 64.4991 48.6228C64.0028 49.2432 64.3206 49.8387 64.1739 50.4243C65.1272 50.7806 66.0781 50.4492 66.9385 50.6585C67.2196 50.9924 67.1341 51.2939 66.9972 51.6228C66.1368 52.004 65.2152 51.6228 64.3133 51.8869C64.1275 52.3902 64.2179 52.911 64.2473 53.5364C65.4084 53.5339 66.5279 53.5339 67.6792 53.5339Z" fill="#FDDC2E"/>
<path d="M28.2073 47.7059C28.2806 48.0199 28.3368 48.2616 28.0924 48.583C27.0462 48.583 25.9242 48.583 24.7827 48.583C24.4943 49.2532 24.6165 49.8488 24.6507 50.5514C25.5258 50.5514 26.3642 50.5514 27.1391 50.5514C27.4715 51.1569 27.4715 51.1569 27.2564 51.7275C26.4473 51.9318 25.5869 51.6976 24.6947 51.882C24.4649 52.7565 24.7216 53.676 24.5603 54.4633C24.2449 54.862 23.9541 54.862 23.6412 54.6801C23.3625 54.3437 23.2794 50.4891 23.4872 47.7881C24.3109 47.5315 26.7162 47.4842 28.2073 47.7059Z" fill="#FDDC2E"/>
<path d="M21.8518 47.7053C21.9251 48.0217 21.9814 48.2609 21.7076 48.6172C20.6589 48.6172 19.5028 48.6172 18.3441 48.6172C18.1877 49.3124 18.2317 49.8755 18.2952 50.491C19.141 50.7252 19.9965 50.486 20.8252 50.6455C21.1234 50.9868 20.9987 51.3307 20.9009 51.7916C20.0454 51.7916 19.2119 51.7916 18.3392 51.7916C18.1192 52.7733 18.3735 53.6928 18.173 54.5075C17.8675 54.8713 17.579 54.8639 17.2759 54.6745C17.0095 54.3605 16.9313 50.2617 17.1342 47.7825C17.9701 47.5309 20.3876 47.486 21.8518 47.7053Z" fill="#FDDC2E"/>
<path d="M33.4176 52.287C33.3418 53.1466 33.4763 53.8543 33.3296 54.4697C33.0387 54.8783 32.7381 54.8285 32.4667 54.7164C32.2174 54.4971 32.1685 54.2504 32.2052 54.0013C32.3959 52.7255 31.9657 51.6741 31.1786 50.7048C30.7166 50.1367 30.3377 49.4938 29.9417 48.8709C29.7291 48.5345 29.4039 48.2281 29.5335 47.7596C29.7706 47.5155 30.0493 47.5777 30.4013 47.6475C31.269 48.552 31.7921 49.7879 32.6452 50.7945C33.0387 50.8194 33.1707 50.4756 33.3467 50.2239C33.816 49.5536 34.2609 48.8659 34.7082 48.1807C35.0333 47.6824 35.422 47.3959 36.1724 47.787C35.4611 49.4365 34.1827 50.7347 33.4176 52.287Z" fill="#FDDC2E"/>
<path d="M14.2217 47.6776C14.5297 47.5704 14.7644 47.5455 15.0675 47.7249C15.0675 49.9824 15.0675 52.2872 15.0675 54.6194C14.8744 54.8785 14.5908 54.8038 14.3146 54.7489C14.0555 54.4699 13.9871 49.6609 14.2217 47.6776Z" fill="#FDDC2E"/>
<path d="M24.9024 12.1191C25.384 11.8649 25.78 11.7304 25.8484 12.6498C25.3009 12.7669 24.8951 12.8691 24.9024 12.1191Z" fill="#FDDC2E"/>
<path d="M32.4969 10.079C32.2622 10.6073 31.9298 10.8589 31.2943 10.6197C30.9276 9.58321 32.0153 8.99766 32.0178 7.95615C32.7218 8.66129 32.8342 9.31161 32.4969 10.079Z" fill="#FDDC2E"/>
<path d="M30.7394 24.166C30.7198 24.2856 30.7003 24.4027 30.6587 24.6643C28.0481 20.284 24.0589 18.3679 19.3828 17.5855C20.1723 17.3413 20.9643 17.5207 21.7392 17.4185C25.1393 17.4833 27.7279 19.0855 29.6932 21.8313C30.1918 22.529 30.38 23.3936 30.7394 24.166Z" fill="#FDDC2E"/>
<path d="M19.0058 16.6539C18.5781 17.1647 17.9939 17.1971 17.3974 17.1946H14.6402C14.1122 16.933 13.5915 16.7137 13.11 16.4272C12.2423 15.9114 11.8316 14.7378 12.1176 13.7237C13.0856 15.9114 14.9017 16.6215 17.0821 16.6763C17.7225 16.6913 18.3654 16.6614 19.0058 16.6539Z" fill="#FDDC2E"/>
<path d="M32.4969 10.079C32.2622 10.6073 31.9298 10.8589 31.2943 10.6197C30.9276 9.58321 32.0153 8.99766 32.0178 7.95615C32.7218 8.66129 32.8342 9.31161 32.4969 10.079Z" fill="#FDDC2E"/>
<path d="M25.8484 12.6498C25.3009 12.7669 24.8951 12.8691 24.9024 12.1191C25.384 11.8649 25.78 11.7304 25.8484 12.6498Z" fill="#FDDC2E"/>
</svg>
