<svg width="102" height="39" viewBox="0 0 102 39" fill="none" xmlns="http://www.w3.org/2000/svg">
<rect width="102" height="39" rx="6" fill="white"/>
<path d="M17.4724 26.18C16.1884 26.18 15.0964 25.796 14.1964 25.028C13.3084 24.26 12.8524 23.246 12.8284 21.986H14.8084C14.8564 22.67 15.1264 23.216 15.6184 23.624C16.1224 24.032 16.7404 24.236 17.4724 24.236C18.1324 24.236 18.6724 24.062 19.0924 23.714C19.5244 23.366 19.7464 22.886 19.7584 22.274C19.7584 21.602 19.5364 21.098 19.0924 20.762C18.6604 20.414 18.0604 20.24 17.2924 20.24H16.2844V18.548H17.2924C17.9284 18.548 18.4324 18.38 18.8044 18.044C19.1884 17.708 19.3864 17.27 19.3984 16.73C19.3984 16.202 19.2064 15.776 18.8224 15.452C18.4384 15.116 17.9644 14.948 17.4004 14.948C16.7284 14.948 16.1704 15.146 15.7264 15.542C15.2824 15.926 15.0604 16.454 15.0604 17.126H13.0624C13.0624 15.878 13.4824 14.882 14.3224 14.138C15.1744 13.382 16.2004 13.004 17.4004 13.004C18.5884 13.004 19.5484 13.34 20.2804 14.012C21.0244 14.684 21.3964 15.548 21.3964 16.604C21.3964 17.192 21.2464 17.738 20.9464 18.242C20.6464 18.734 20.2744 19.112 19.8304 19.376C20.4184 19.628 20.8864 20.018 21.2344 20.546C21.5824 21.074 21.7564 21.692 21.7564 22.4C21.7564 23.516 21.3544 24.428 20.5504 25.136C19.7584 25.832 18.7324 26.18 17.4724 26.18ZM31.5841 24.812C30.7201 25.724 29.6101 26.18 28.2541 26.18C26.8981 26.18 25.7881 25.724 24.9241 24.812C24.0601 23.888 23.6281 22.706 23.6281 21.266V17.918C23.6281 16.478 24.0601 15.302 24.9241 14.39C25.7881 13.466 26.8981 13.004 28.2541 13.004C29.6101 13.004 30.7201 13.466 31.5841 14.39C32.4601 15.302 32.8981 16.478 32.8981 17.918V21.266C32.8981 22.706 32.4601 23.888 31.5841 24.812ZM28.2541 24.236C29.0581 24.236 29.7001 23.972 30.1801 23.444C30.6721 22.916 30.9181 22.19 30.9181 21.266V17.918C30.9181 16.994 30.6721 16.268 30.1801 15.74C29.7001 15.212 29.0581 14.948 28.2541 14.948C27.4621 14.948 26.8201 15.212 26.3281 15.74C25.8481 16.268 25.6081 16.994 25.6081 17.918V21.266C25.6081 22.19 25.8481 22.916 26.3281 23.444C26.8201 23.972 27.4621 24.236 28.2541 24.236ZM39.7557 26H37.6677L45.7677 13.22H47.8557L39.7557 26ZM47.5497 26.144C46.5657 26.144 45.7257 25.796 45.0297 25.1C44.3457 24.404 44.0037 23.57 44.0037 22.598C44.0037 21.614 44.3457 20.78 45.0297 20.096C45.7257 19.4 46.5657 19.052 47.5497 19.052C48.5217 19.052 49.3557 19.4 50.0517 20.096C50.7477 20.78 51.0957 21.614 51.0957 22.598C51.0957 23.57 50.7477 24.404 50.0517 25.1C49.3557 25.796 48.5217 26.144 47.5497 26.144ZM46.2537 23.876C46.6137 24.236 47.0457 24.416 47.5497 24.416C48.0537 24.416 48.4737 24.242 48.8097 23.894C49.1577 23.534 49.3317 23.102 49.3317 22.598C49.3317 22.094 49.1577 21.668 48.8097 21.32C48.4737 20.96 48.0537 20.78 47.5497 20.78C47.0457 20.78 46.6137 20.96 46.2537 21.32C45.9057 21.68 45.7317 22.106 45.7317 22.598C45.7317 23.09 45.9057 23.516 46.2537 23.876ZM37.9737 20.168C36.9897 20.168 36.1497 19.82 35.4537 19.124C34.7697 18.428 34.4277 17.594 34.4277 16.622C34.4277 15.638 34.7697 14.804 35.4537 14.12C36.1497 13.424 36.9897 13.076 37.9737 13.076C38.9457 13.076 39.7797 13.424 40.4757 14.12C41.1717 14.804 41.5197 15.638 41.5197 16.622C41.5197 17.594 41.1717 18.428 40.4757 19.124C39.7797 19.82 38.9457 20.168 37.9737 20.168ZM37.9737 18.44C38.4657 18.44 38.8857 18.26 39.2337 17.9C39.5937 17.54 39.7737 17.114 39.7737 16.622C39.7737 16.13 39.5937 15.704 39.2337 15.344C38.8857 14.984 38.4657 14.804 37.9737 14.804C37.4697 14.804 37.0437 14.984 36.6957 15.344C36.3477 15.692 36.1737 16.118 36.1737 16.622C36.1737 17.126 36.3477 17.558 36.6957 17.918C37.0437 18.266 37.4697 18.44 37.9737 18.44ZM63.2399 24.182C64.4879 24.182 65.5439 23.738 66.4079 22.85C67.2719 21.962 67.7039 20.882 67.7039 19.61C67.7039 18.338 67.2719 17.258 66.4079 16.37C65.5439 15.482 64.4879 15.038 63.2399 15.038C61.9799 15.038 60.9179 15.482 60.0539 16.37C59.1899 17.258 58.7579 18.338 58.7579 19.61C58.7579 20.882 59.1899 21.962 60.0539 22.85C60.9179 23.738 61.9799 24.182 63.2399 24.182ZM67.9199 24.29C66.6359 25.574 65.0759 26.216 63.2399 26.216C61.4039 26.216 59.8439 25.58 58.5599 24.308C57.2759 23.024 56.6339 21.458 56.6339 19.61C56.6339 17.762 57.2759 16.202 58.5599 14.93C59.8439 13.646 61.4039 13.004 63.2399 13.004C65.0759 13.004 66.6359 13.646 67.9199 14.93C69.2039 16.214 69.8459 17.774 69.8459 19.61C69.8459 21.446 69.2039 23.006 67.9199 24.29ZM72.1568 26V13.22H79.7528V15.236H74.2628V18.53H78.5828V20.528H74.2628V26H72.1568ZM81.8072 26V13.22H89.4032V15.236H83.9132V18.53H88.2332V20.528H83.9132V26H81.8072Z" fill="#14141E"/>
</svg>
