<svg width="68" height="48" viewBox="0 0 68 48" fill="none" xmlns="http://www.w3.org/2000/svg">
<g clip-path="url(#clip0_773_704)">
<path d="M20.4559 8.26505C20.4559 7.82306 20.1023 7.51367 19.7045 7.51367C19.2625 7.51367 18.9531 7.86726 18.9531 8.26505C18.9531 8.66284 19.3509 8.53025 19.7929 8.53025C20.1465 8.53025 20.4559 8.66284 20.4559 8.26505Z" fill="#F7D82F"/>
<path d="M11.349 9.45856C11.2606 4.24309 15.6805 0 20.8959 0H32.7412L32.6086 3.58011C32.6086 4.33149 32.255 5.65746 31.5921 6.54144C31.1943 7.07182 30.5755 7.33702 29.9567 7.33702L20.6749 7.29282C19.7909 7.29282 19.349 7.8232 19.0838 8.66298C18.7302 9.94475 19.7025 11.1823 21.3821 11.4475L22.7081 11.6243C23.1943 11.6243 23.9456 11.7569 24.3434 11.8011C31.0617 12.2873 32.7412 15.9116 32.7412 20.9061C32.7412 26.0773 28.5423 30.5414 23.3711 30.5414H11.349V25.105C11.349 24 12.2329 23.116 13.3379 23.116H22.8849C23.5921 23.116 24.255 22.8508 24.7412 22.3646C26.1556 20.9061 25.0064 18.7845 23.4153 18.7845H20.7191C15.5479 18.8287 11.3932 14.5856 11.349 9.45856Z" fill="#F7D82F"/>
<path d="M51.8344 0.000197458C50.7295 0.000197458 49.8455 0.884175 49.8455 1.98915V21.1273C49.8455 21.1273 49.5361 15.4256 45.9118 8.66318C40.9173 -0.574388 32.5195 0.000197458 32.5195 0.000197458V3.8897C32.6963 4.0223 34.2433 4.72948 34.0223 6.67423C33.9781 6.93942 33.8897 7.20462 33.8013 7.42561C33.6245 7.8234 33.3593 8.48639 33.2267 9.23777C33.1825 9.59136 33.1825 9.94495 33.2267 10.3427L33.3593 11.1383C33.4477 11.8013 33.4919 12.4643 33.3593 13.0831L32.5637 18.6963L32.6079 18.4311L32.5637 30.5416H38.0002C39.1052 30.5416 39.9449 29.6577 39.9449 28.5969V9.41456C39.9449 9.41456 40.1659 15.5582 43.5693 21.7461C48.7847 31.2488 57.2709 30.4974 57.2709 30.4974V0.000197458H51.8344Z" fill="#F7D82F"/>
<path d="M28.3211 8.57484C28.492 8.57484 28.6305 8.43632 28.6305 8.26545C28.6305 8.09457 28.492 7.95605 28.3211 7.95605C28.1502 7.95605 28.0117 8.09457 28.0117 8.26545C28.0117 8.43632 28.1502 8.57484 28.3211 8.57484Z" fill="#F7D82F"/>
<path d="M21.8672 11.4916C21.9556 11.4916 23.8561 11.4032 24.7401 10.917C24.7401 10.917 24.2097 11.6242 22.8396 11.6242C22.5302 11.6242 21.8672 11.4916 21.8672 11.4916Z" fill="#F7D82F"/>
<path d="M32.3865 6.4978C32.6075 6.23261 32.9169 5.79062 32.8727 5.34863C32.8727 5.34863 33.5357 5.74642 33.1821 6.7188C33.0937 6.89559 32.9611 7.07239 32.7843 7.16079C32.6517 7.20499 32.5191 7.24919 32.3865 7.11659C32.2097 6.93979 32.2097 6.6746 32.3865 6.4978Z" fill="#F7D82F"/>
<path d="M19.127 8.53027C19.127 8.53027 21.8674 11.7126 24.6961 10.9612C24.6961 10.9612 21.9557 12.1988 20.0552 11.0054C20.0552 11.0054 18.5524 10.033 19.127 8.53027Z" fill="#E0BA1B"/>
<path d="M23.0625 11.6244C23.0625 11.6244 26.51 11.1382 28.72 12.3316C30.9299 13.5249 32.0791 15.2045 32.6095 18.5194C32.6095 18.5194 31.9907 12.3758 23.0625 11.6244Z" fill="#E0BA1B"/>
<path d="M1.00861 43.4482C1.4948 43.7576 2.24618 44.0228 3.04176 44.0228C4.23513 44.0228 4.89811 43.404 4.89811 42.52C4.89811 41.6802 4.41193 41.194 3.21856 40.752C1.75999 40.2216 0.876014 39.4703 0.876014 38.2327C0.876014 36.8625 2.02519 35.8018 3.74894 35.8018C4.67712 35.8018 5.3401 36.0228 5.73789 36.2437L5.4285 37.1277C5.11911 36.9509 4.54452 36.6857 3.74894 36.6857C2.51137 36.6857 2.06938 37.4371 2.06938 38.0117C2.06938 38.8515 2.59977 39.2493 3.83734 39.7355C5.3401 40.31 6.13568 41.0614 6.13568 42.3432C6.13568 43.7134 5.11911 44.9067 2.99756 44.9067C2.11358 44.9067 1.18541 44.6415 0.699219 44.3321L1.00861 43.4482Z" fill="#F7D82F"/>
<path d="M2.9959 45.1717C2.11192 45.1717 1.13955 44.9066 0.609159 44.553C0.476562 44.5088 0.476562 44.4204 0.476562 44.332L0.785955 43.3596C0.785955 43.3154 0.874353 43.227 0.918551 43.227C0.96275 43.1828 1.05115 43.227 1.09535 43.227C1.66993 43.5806 2.37712 43.7574 3.0401 43.7574C4.05667 43.7574 4.67546 43.2712 4.67546 42.4756C4.67546 41.8568 4.41026 41.4148 3.1285 40.8845C1.40474 40.2657 0.609159 39.4259 0.609159 38.1441C0.609159 36.5972 1.89093 35.4922 3.70308 35.4922C4.80805 35.4922 5.47104 35.8016 5.78043 35.9784C5.86883 36.0226 5.91303 36.1552 5.86883 36.2436L5.55944 37.1717C5.55944 37.2159 5.47104 37.3043 5.42684 37.3043C5.38264 37.3485 5.29424 37.3043 5.25004 37.3043C4.89645 37.1275 4.36607 36.9066 3.65888 36.9066C2.59811 36.9066 2.20032 37.5253 2.20032 38.0115C2.20032 38.6745 2.59811 39.0281 3.83568 39.5143C5.51524 40.1773 6.26662 41.017 6.26662 42.343C6.31082 43.669 5.47104 45.1717 2.9959 45.1717ZM0.96275 44.2878C1.44894 44.553 2.28872 44.7298 2.9959 44.7298C4.76385 44.7298 5.91303 43.8016 5.91303 42.3872C5.91303 41.238 5.29424 40.5751 3.79148 39.9563C2.59811 39.4701 1.89093 39.0281 1.89093 38.0115C1.89093 37.2601 2.46551 36.4646 3.79148 36.4646C4.45446 36.4646 4.98485 36.6414 5.33844 36.8182L5.51524 36.2878C5.20584 36.1552 4.63126 35.9784 3.79148 35.9784C2.20032 35.9784 1.13955 36.9066 1.13955 38.1883C1.13955 39.2491 1.84673 39.9563 3.34949 40.5309C4.45446 40.9728 5.16165 41.459 5.16165 42.5198C5.16165 43.5806 4.32187 44.2436 3.0843 44.2436C2.42131 44.2436 1.75833 44.0668 1.13955 43.7574L0.96275 44.2878Z" fill="#F7D82F"/>
<path d="M8.30201 40.1327C8.30201 39.4697 8.30201 38.9394 8.25781 38.409H9.27439L9.31859 39.4697H9.36278C9.67218 38.851 10.4236 38.2764 11.4843 38.2764C12.3683 38.2764 13.7385 38.8068 13.7385 41.0167V44.862H12.5893V41.1493C12.5893 40.1327 12.1915 39.2487 11.0865 39.2487C10.3352 39.2487 9.71638 39.7791 9.53958 40.4421C9.49538 40.5747 9.45118 40.7957 9.45118 40.9725V44.8178H8.30201V40.1327Z" fill="#F7D82F"/>
<path d="M13.781 45.0384H12.6318C12.4992 45.0384 12.4108 44.95 12.4108 44.8174V41.1047C12.4108 40.3533 12.1899 39.4251 11.1291 39.4251C10.4219 39.4251 9.93571 39.9555 9.75891 40.4417C9.71471 40.5743 9.67051 40.7511 9.67051 40.9279V44.7732C9.67051 44.9058 9.58212 44.9942 9.44952 44.9942H8.30035C8.16775 44.9942 8.07936 44.9058 8.07936 44.7732V40.1323C8.07936 39.4251 8.07936 38.8947 8.03516 38.4085C8.03516 38.3643 8.03516 38.2759 8.07936 38.2317C8.12355 38.1875 8.16775 38.1433 8.25615 38.1433H9.27272C9.40532 38.1433 9.49372 38.2317 9.49372 38.3643L9.53792 38.8505C9.93571 38.4085 10.5987 38.0107 11.4827 38.0107C12.6318 38.0107 13.9578 38.7621 13.9578 40.9721V44.8174C14.002 44.95 13.9136 45.0384 13.781 45.0384ZM12.8086 44.5964H13.5158V40.9721C13.5158 38.5853 11.7921 38.4527 11.4827 38.4527C10.4661 38.4527 9.84731 39.0273 9.53792 39.5577C9.44952 39.7345 9.09593 39.6903 9.09593 39.4693L9.05173 38.6295H8.47715C8.52134 39.0715 8.52134 39.5135 8.52134 40.1323V44.5964H9.22853V40.9721C9.22853 40.7511 9.27273 40.5301 9.31692 40.3533C9.58212 39.5577 10.2893 39.0273 11.0849 39.0273C12.1899 39.0273 12.8086 39.7787 12.8086 41.1489V44.5964Z" fill="#F7D82F"/>
<path d="M17.6265 36.5968C17.6265 36.9946 17.3613 37.304 16.8752 37.304C16.4774 37.304 16.168 36.9946 16.168 36.5968C16.168 36.199 16.4774 35.8896 16.8752 35.8896C17.3613 35.8896 17.6265 36.199 17.6265 36.5968ZM16.3448 44.8178V38.409H17.4939V44.8178H16.3448Z" fill="#F7D82F"/>
<path d="M17.4923 45.0391H16.3431C16.2105 45.0391 16.1221 44.9507 16.1221 44.8181V38.4093C16.1221 38.2767 16.2105 38.1883 16.3431 38.1883H17.4923C17.6249 38.1883 17.7133 38.2767 17.7133 38.4093V44.8181C17.7133 44.9507 17.6249 45.0391 17.4923 45.0391ZM16.5641 44.5971H17.2713V38.6303H16.5641V44.5971ZM16.8735 37.5695C16.3431 37.5695 15.9453 37.1275 15.9453 36.5971C15.9453 36.0667 16.3431 35.6689 16.8735 35.6689C17.4039 35.6689 17.8017 36.0667 17.8017 36.5971C17.8017 36.8623 17.7133 37.0833 17.5365 37.2601C17.4481 37.4369 17.1829 37.5695 16.8735 37.5695ZM16.9177 36.1109C16.6083 36.1109 16.4315 36.3319 16.4315 36.5971C16.4315 36.8623 16.6525 37.0833 16.9177 37.0833C17.0945 37.0833 17.2271 37.0391 17.3155 36.9507C17.4039 36.8623 17.4481 36.7297 17.4481 36.5971C17.4039 36.2877 17.2271 36.1109 16.9177 36.1109Z" fill="#F7D82F"/>
<path d="M24.0808 44.8177V39.2929H21.3847V44.8177H20.2355V39.2929H19.3516V38.4089H20.2355V38.1879C20.2355 37.3039 20.4565 36.5083 20.9427 35.9779C21.2963 35.6244 21.8267 35.4034 22.5781 35.4034C22.9317 35.4034 23.2853 35.536 23.5063 35.6244L23.2853 36.5083C23.1085 36.4199 22.8433 36.3315 22.5781 36.3315C21.6499 36.3315 21.4289 37.1271 21.4289 38.0995V38.3647H24.125V38.0553C24.125 37.1713 24.346 36.3315 24.8764 35.8011C25.3184 35.3592 25.893 35.2266 26.4234 35.2266C26.8654 35.2266 27.1748 35.315 27.44 35.4034L27.3074 36.2873C27.1306 36.1989 26.9096 36.1547 26.556 36.1547C25.5836 36.1547 25.3184 37.0387 25.3184 38.0111V38.3647H26.8654V39.2487H25.23V44.7735H24.0808V44.8177Z" fill="#F7D82F"/>
<path d="M25.2284 45.0388H24.0792C23.9466 45.0388 23.8582 44.9504 23.8582 44.8178V39.5139H21.604V44.8178C21.604 44.9504 21.5156 45.0388 21.383 45.0388H20.2339C20.1013 45.0388 20.0129 44.9504 20.0129 44.8178V39.5139H19.3499C19.2173 39.5139 19.1289 39.4255 19.1289 39.2929V38.4089C19.1289 38.2763 19.2173 38.1879 19.3499 38.1879H20.0129C20.0129 37.1714 20.2781 36.3758 20.8085 35.8454C21.2505 35.4034 21.825 35.1824 22.5764 35.1824C23.1068 35.1824 23.5046 35.3592 23.593 35.4476C23.6814 35.4918 23.7256 35.5802 23.6814 35.7128L23.4604 36.5968C23.4604 36.641 23.4162 36.7294 23.3278 36.7294C23.2836 36.7736 23.1952 36.7736 23.151 36.7294C23.0626 36.6852 22.8416 36.5968 22.5764 36.5968C22.1344 36.5968 21.6482 36.7736 21.6482 38.1437V38.1879H23.9024V38.0995C23.9024 37.0388 24.1676 36.199 24.7422 35.7128C25.1842 35.2708 25.8029 35.0498 26.4659 35.0498C26.9963 35.0498 27.3499 35.1824 27.5267 35.2708C27.6151 35.315 27.6593 35.4034 27.6593 35.4918L27.5267 36.3758C27.5267 36.4642 27.4825 36.5084 27.3941 36.5526C27.3499 36.5968 27.2615 36.5968 27.2173 36.5526C27.0847 36.5084 26.8637 36.42 26.5543 36.42C26.2891 36.42 25.5377 36.42 25.5377 38.0553V38.1879H26.8637C26.9963 38.1879 27.0847 38.2763 27.0847 38.4089V39.2929C27.0847 39.4255 26.9963 39.5139 26.8637 39.5139H25.5377V44.8178C25.4493 44.9504 25.3609 45.0388 25.2284 45.0388ZM24.3002 44.5968H25.0074V39.2929C25.0074 39.1603 25.0958 39.0719 25.2284 39.0719H26.5543V38.6299H25.2284C25.0958 38.6299 25.0074 38.5415 25.0074 38.4089V38.0553C25.0074 36.3316 25.8029 35.978 26.4659 35.978C26.6869 35.978 26.9079 36.0222 27.0405 36.0664L27.1289 35.6244C26.9521 35.5802 26.6869 35.4918 26.3775 35.4918C26.0681 35.4918 25.4493 35.5802 24.9632 36.0222C24.3886 36.5526 24.256 37.4365 24.256 38.0995V38.4089C24.256 38.5415 24.1676 38.6299 24.035 38.6299H21.3389C21.2063 38.6299 21.1179 38.5415 21.1179 38.4089V38.1437C21.1179 36.8178 21.604 36.1548 22.488 36.1548C22.709 36.1548 22.8858 36.199 23.0184 36.2432L23.151 35.8012C22.9742 35.7128 22.7532 35.6686 22.488 35.6686C21.8692 35.6686 21.383 35.8454 21.0295 36.199C20.5875 36.641 20.3665 37.3481 20.3665 38.2321V38.4531C20.3665 38.5857 20.2781 38.6741 20.1455 38.6741H19.4825V39.1161H20.1455C20.2781 39.1161 20.3665 39.2045 20.3665 39.3371V44.641H21.0737V39.3371C21.0737 39.2045 21.1621 39.1161 21.2947 39.1161H23.9908C24.1234 39.1161 24.2118 39.2045 24.2118 39.3371V44.5968H24.3002Z" fill="#F7D82F"/>
<path d="M28.8963 38.4082L30.3106 42.2093C30.4432 42.6513 30.62 43.1375 30.7084 43.5353H30.7526C30.8852 43.1375 31.0178 42.6513 31.1504 42.2093L32.4322 38.4524H33.6698L31.9018 43.0049C31.062 45.2148 30.4874 46.3198 29.6919 47.027C29.1173 47.5132 28.5427 47.7342 28.2775 47.7784L27.9681 46.806C28.2775 46.7176 28.6311 46.5408 28.9847 46.2314C29.2941 45.9662 29.6919 45.5242 29.9571 44.9496C30.0013 44.817 30.0455 44.7286 30.0455 44.6844C30.0455 44.6402 30.0013 44.5077 29.9571 44.3751L27.5703 38.4524H28.8963V38.4082Z" fill="#F7D82F"/>
<path d="M28.2774 47.9997C28.189 47.9997 28.1006 47.9555 28.0564 47.8229L27.747 46.8505C27.7028 46.7179 27.7912 46.6295 27.8796 46.5853C28.0564 46.5411 28.4542 46.3643 28.8078 46.0549C29.1614 45.7455 29.515 45.3035 29.736 44.8173C29.7802 44.7731 29.8244 44.6405 29.8244 44.6405C29.8244 44.6405 29.8244 44.5521 29.7802 44.4195L27.4376 38.4969C27.3934 38.4085 27.4376 38.3643 27.4376 38.2759C27.4818 38.2317 27.526 38.1875 27.6144 38.1875H28.8962C28.9846 38.1875 29.073 38.2317 29.1172 38.3201L30.5315 42.1212C30.6199 42.3422 30.6641 42.5632 30.7525 42.7842C30.8409 42.5632 30.8851 42.3422 30.9735 42.1212L32.2553 38.3643C32.2995 38.2759 32.3879 38.2317 32.4763 38.2317H33.7139C33.8023 38.2317 33.8465 38.2759 33.8907 38.3201C33.9348 38.3643 33.9348 38.4527 33.9348 38.5411L32.1669 43.0936C31.3713 45.1709 30.7967 46.4527 29.9128 47.2041C29.1614 47.7787 28.4984 47.9555 28.2774 47.9997C28.3216 47.9997 28.3216 47.9997 28.2774 47.9997ZM28.2774 46.9389L28.4542 47.5135C28.7194 47.4251 29.1172 47.2483 29.6034 46.8505C30.3105 46.2317 30.8851 45.2151 31.7249 42.9168L33.3603 38.6295H32.6089L31.3713 42.2538C31.2829 42.5632 31.1945 42.8726 31.1061 43.1378C31.0619 43.2704 31.0177 43.4472 30.9735 43.5798C30.9293 43.7566 30.5757 43.7566 30.5315 43.5798C30.4431 43.2262 30.2663 42.74 30.1337 42.298L28.7636 38.6295H27.968L30.2221 44.2427C30.2663 44.4195 30.3105 44.5079 30.3105 44.6405C30.3105 44.7289 30.2663 44.8615 30.1779 44.9941C29.8244 45.7455 29.3382 46.2317 29.1172 46.3643C28.8962 46.5853 28.5868 46.8063 28.2774 46.9389Z" fill="#F7D82F"/>
<path d="M38.9297 44.8178V35.8896H40.1673L43.0402 40.3979C43.7032 41.4587 44.2336 42.3869 44.6313 43.3151H44.6755C44.5871 42.1217 44.5429 41.0167 44.5429 39.6466V35.8896H45.6479V44.8178H44.4987L41.67 40.2653C41.0512 39.2488 40.4325 38.2322 39.9905 37.2598H39.9463C39.9905 38.3648 40.0347 39.4698 40.0347 40.9283V44.7294H38.9297V44.8178Z" fill="#F7D82F"/>
<path d="M45.6021 45.0384H44.4529C44.3645 45.0384 44.3203 44.9942 44.2761 44.95L41.4474 40.3975C40.917 39.6019 40.5192 38.8947 40.2098 38.2318C40.254 39.0273 40.254 39.9113 40.254 40.9721V44.7732C40.254 44.9058 40.1656 44.9942 40.033 44.9942H38.928C38.7954 44.9942 38.707 44.9058 38.707 44.7732V35.8892C38.707 35.7566 38.7954 35.6682 38.928 35.6682H40.1656C40.254 35.6682 40.2982 35.7124 40.3424 35.7566L43.2153 40.2649C43.6573 40.9721 44.0109 41.5909 44.3645 42.2539C44.3203 41.4141 44.3203 40.5301 44.3203 39.6019V35.845C44.3203 35.7124 44.4087 35.624 44.5413 35.624H45.6463C45.7789 35.624 45.8673 35.7124 45.8673 35.845V44.7732C45.8231 44.95 45.7347 45.0384 45.6021 45.0384ZM44.5855 44.5964H45.4253V36.1102H44.7623V39.6461C44.7623 40.9279 44.8065 42.0771 44.8949 43.3146C44.8949 43.403 44.8507 43.4914 44.7623 43.5356C44.7181 43.5798 44.6297 43.5798 44.5855 43.5356C44.5413 43.4914 44.4529 43.4914 44.4529 43.4472C44.0109 42.5191 43.5247 41.5909 42.8617 40.5743L40.0772 36.1544H39.149V44.6406H39.812V41.0605C39.812 39.5577 39.7678 38.497 39.7236 37.392C39.7236 37.3036 39.7678 37.2152 39.8562 37.171C39.9446 37.1268 40.1214 37.171 40.1656 37.2594C40.5634 38.0992 41.0938 39.0273 41.8452 40.2207L44.5855 44.5964Z" fill="#F7D82F"/>
<path d="M54.0458 41.5913C54.0458 43.978 52.4104 44.9946 50.8635 44.9946C49.1397 44.9946 47.7695 43.7128 47.7695 41.6797C47.7695 39.5139 49.1839 38.2764 50.9519 38.2764C52.8082 38.2764 54.0458 39.6023 54.0458 41.5913ZM48.9629 41.6355C48.9629 43.0498 49.7585 44.1106 50.9077 44.1106C52.0126 44.1106 52.8524 43.0498 52.8524 41.6355C52.8524 40.5305 52.322 39.1603 50.9077 39.1603C49.5817 39.1603 48.9629 40.3979 48.9629 41.6355Z" fill="#F7D82F"/>
<path d="M50.8618 45.2159C48.917 45.2159 47.5469 43.7573 47.5469 41.68C47.5469 39.5584 48.9612 38.0557 50.9502 38.0557C52.8949 38.0557 54.2651 39.5142 54.2651 41.5916C54.2651 44.0667 52.4972 45.2159 50.8618 45.2159ZM50.9944 38.4977C49.2264 38.4977 48.0331 39.7794 48.0331 41.68C48.0331 43.4921 49.2264 44.7739 50.906 44.7739C52.3646 44.7739 53.8673 43.8015 53.8673 41.5916C53.8231 39.7352 52.6739 38.4977 50.9944 38.4977ZM50.906 44.3319C49.6684 44.3319 48.7402 43.1827 48.7402 41.6358C48.7402 40.2656 49.4032 38.9396 50.9502 38.9396C52.4088 38.9396 53.1159 40.354 53.1159 41.6358C53.0717 43.1385 52.1436 44.3319 50.906 44.3319ZM50.9502 39.3816C49.7568 39.3816 49.1822 40.5308 49.1822 41.6358C49.1822 42.9175 49.8894 43.8899 50.906 43.8899C51.9226 43.8899 52.6297 42.9175 52.6297 41.6358C52.6297 40.8402 52.2762 39.3816 50.9502 39.3816Z" fill="#F7D82F"/>
<path d="M56.0347 43.624C56.3883 43.845 57.0071 44.066 57.5817 44.066C58.4215 44.066 58.8193 43.624 58.8193 43.0936C58.8193 42.519 58.4657 42.2096 57.6259 41.9002C56.4767 41.5024 55.9463 40.8394 55.9463 40.0881C55.9463 39.0715 56.7861 38.1875 58.1563 38.1875C58.8193 38.1875 59.3938 38.3643 59.7474 38.5853L59.438 39.4251C59.1728 39.2483 58.7309 39.0715 58.1121 39.0715C57.4049 39.0715 57.0513 39.4693 57.0513 39.9555C57.0513 40.4858 57.4491 40.7068 58.2889 41.0604C59.3938 41.5024 59.9684 42.0328 59.9684 43.0052C59.9684 44.1102 59.0844 44.9057 57.5817 44.9057C56.8745 44.9057 56.2115 44.7289 55.7695 44.4637L56.0347 43.624Z" fill="#F7D82F"/>
<path d="M57.5375 45.171C56.8304 45.171 56.1232 44.9942 55.637 44.6848C55.5486 44.6406 55.5044 44.508 55.5486 44.4196L55.858 43.5356C55.858 43.4914 55.9464 43.403 55.9906 43.403C56.0348 43.3588 56.1232 43.403 56.1674 43.4472C56.4768 43.6682 57.0514 43.8892 57.5817 43.8892C58.2447 43.8892 58.5983 43.624 58.5983 43.1378C58.5983 42.74 58.4215 42.4748 57.5375 42.1654C56.0348 41.6351 55.6812 40.7511 55.6812 40.1323C55.6812 38.8947 56.6978 38.0107 58.1121 38.0107C58.7309 38.0107 59.3497 38.1875 59.7917 38.4527C59.8801 38.4969 59.9243 38.6295 59.8801 38.7179L59.5707 39.5577C59.5707 39.6019 59.4823 39.6903 59.4381 39.6903C59.3939 39.6903 59.3055 39.6903 59.2613 39.6903C59.0845 39.6019 58.6425 39.3367 58.0679 39.3367C57.5375 39.3367 57.2281 39.6019 57.2281 39.9997C57.2281 40.3533 57.4491 40.5743 58.2889 40.8837C59.5707 41.3699 60.1011 42.0328 60.1011 43.0052C60.1895 44.3312 59.1287 45.171 57.5375 45.171ZM56.0348 44.4196C56.4768 44.6406 57.0072 44.729 57.5817 44.729C58.9077 44.729 59.7475 44.066 59.7475 43.0494C59.7475 42.2538 59.3055 41.7234 58.2005 41.3257C57.4491 41.0163 56.8304 40.7511 56.8304 40.0439C56.8304 39.3809 57.3607 38.9389 58.1121 38.9389C58.5983 38.9389 59.0403 39.0715 59.3055 39.2041L59.4381 38.7621C59.0845 38.5853 58.5983 38.4969 58.1121 38.4969C56.9188 38.4969 56.1232 39.1599 56.1232 40.1765C56.1232 40.8837 56.6536 41.4141 57.6701 41.7676C58.5099 42.077 58.9961 42.4306 58.9961 43.1378C58.9961 43.6682 58.5983 44.3312 57.5375 44.3312C57.0072 44.3312 56.4768 44.1544 56.1232 43.9776L56.0348 44.4196Z" fill="#F7D82F"/>
<path d="M62.7522 41.8565C62.7964 43.4476 63.7688 44.0664 64.9621 44.0664C65.8019 44.0664 66.2881 43.9338 66.7301 43.7128L66.9511 44.5526C66.5533 44.7294 65.8461 44.9504 64.8295 44.9504C62.8406 44.9504 61.6914 43.6686 61.6914 41.7239C61.6914 39.7791 62.8406 38.2764 64.6969 38.2764C66.7743 38.2764 67.3489 40.1327 67.3489 41.2819C67.3489 41.5029 67.3047 41.7239 67.3047 41.8123H62.7522V41.8565ZM66.1997 41.0167C66.1997 40.2653 65.8903 39.1161 64.5643 39.1161C63.371 39.1161 62.8848 40.2211 62.7964 41.0167H66.1997Z" fill="#F7D82F"/>
<path d="M64.7849 45.1717C62.7518 45.1717 61.4258 43.8015 61.4258 41.7242C61.4258 39.5584 62.7517 38.0557 64.6523 38.0557C66.6413 38.0557 67.5252 39.691 67.5252 41.2822C67.5252 41.5032 67.5252 41.68 67.481 41.8126V41.8568C67.481 41.9894 67.3926 42.0336 67.26 42.0336H62.9727C63.1053 43.6247 64.3871 43.8015 64.9617 43.8015C65.8015 43.8015 66.2877 43.6689 66.6413 43.4921C66.6855 43.4479 66.7739 43.4479 66.8181 43.4921C66.8623 43.5363 66.9064 43.5805 66.9506 43.6247L67.1716 44.4645C67.2158 44.5529 67.1274 44.6855 67.039 44.7297C66.5971 44.9507 65.8899 45.1717 64.7849 45.1717ZM64.6523 38.4977C63.0169 38.4977 61.8678 39.8236 61.8678 41.7242C61.8678 43.5805 62.9727 44.7297 64.7849 44.7297C65.6689 44.7297 66.2435 44.5971 66.6413 44.4203L66.5529 44.0225C66.1551 44.1551 65.6689 44.2877 64.9175 44.2877C63.7683 44.2877 62.5308 43.6247 62.4866 41.8568C62.4866 41.8126 62.4866 41.7242 62.5308 41.68C62.575 41.6358 62.6192 41.6358 62.7076 41.6358H67.039C67.039 41.5474 67.039 41.4148 67.039 41.3264C67.0832 41.017 67.039 38.4977 64.6523 38.4977ZM66.1993 41.238H62.7959C62.7518 41.238 62.6634 41.1938 62.6192 41.1496C62.575 41.1054 62.575 41.0612 62.575 40.9728C62.7076 39.912 63.3705 38.8954 64.5639 38.8954C65.0943 38.8954 65.5363 39.0722 65.8457 39.3816C66.3761 39.912 66.4203 40.7076 66.4203 41.017C66.4203 41.1054 66.2877 41.238 66.1993 41.238ZM63.0169 40.796H65.9341C65.8899 40.4866 65.8015 40.0446 65.4921 39.691C65.2711 39.47 64.9175 39.3374 64.5197 39.3374C63.5915 39.3374 63.1937 40.133 63.0169 40.796Z" fill="#F7D82F"/>
</g>
<defs>
<clipPath id="clip0_773_704">
<rect width="67.0497" height="48" fill="white" transform="translate(0.476562)"/>
</clipPath>
</defs>
</svg>
