<svg width="102" height="39" viewBox="0 0 102 39" fill="none" xmlns="http://www.w3.org/2000/svg">
<rect width="102" height="39" rx="6" fill="white"/>
<path d="M21.5634 24.056V26H13.1034V25.28C13.1034 24.824 13.1694 24.392 13.3014 23.984C13.4454 23.564 13.5954 23.216 13.7514 22.94C13.9074 22.664 14.1654 22.358 14.5254 22.022C14.8854 21.674 15.1614 21.428 15.3534 21.284C15.5454 21.128 15.8814 20.876 16.3614 20.528C16.8534 20.18 17.1654 19.958 17.2974 19.862C18.0534 19.31 18.5994 18.824 18.9354 18.404C19.2714 17.984 19.4394 17.48 19.4394 16.892C19.4394 16.304 19.2594 15.836 18.8994 15.488C18.5394 15.128 18.0414 14.948 17.4054 14.948C16.7454 14.948 16.1994 15.146 15.7674 15.542C15.3354 15.926 15.1134 16.454 15.1014 17.126H13.1034C13.1034 15.914 13.5114 14.924 14.3274 14.156C15.1554 13.388 16.1874 13.004 17.4234 13.004C18.5634 13.004 19.5174 13.34 20.2854 14.012C21.0534 14.684 21.4374 15.626 21.4374 16.838C21.4374 17.798 21.2154 18.608 20.7714 19.268C20.3394 19.916 19.6194 20.6 18.6114 21.32C18.4554 21.44 18.1674 21.644 17.7474 21.932C17.3274 22.22 17.0154 22.442 16.8114 22.598C16.6194 22.754 16.4094 22.97 16.1814 23.246C15.9534 23.51 15.7974 23.78 15.7134 24.056H21.5634ZM31.4171 24.812C30.5531 25.724 29.4431 26.18 28.0871 26.18C26.7311 26.18 25.6211 25.724 24.7571 24.812C23.8931 23.888 23.4611 22.706 23.4611 21.266V17.918C23.4611 16.478 23.8931 15.302 24.7571 14.39C25.6211 13.466 26.7311 13.004 28.0871 13.004C29.4431 13.004 30.5531 13.466 31.4171 14.39C32.2931 15.302 32.7311 16.478 32.7311 17.918V21.266C32.7311 22.706 32.2931 23.888 31.4171 24.812ZM28.0871 24.236C28.8911 24.236 29.5331 23.972 30.0131 23.444C30.5051 22.916 30.7511 22.19 30.7511 21.266V17.918C30.7511 16.994 30.5051 16.268 30.0131 15.74C29.5331 15.212 28.8911 14.948 28.0871 14.948C27.2951 14.948 26.6531 15.212 26.1611 15.74C25.6811 16.268 25.4411 16.994 25.4411 17.918V21.266C25.4411 22.19 25.6811 22.916 26.1611 23.444C26.6531 23.972 27.2951 24.236 28.0871 24.236ZM39.5887 26H37.5007L45.6007 13.22H47.6887L39.5887 26ZM47.3827 26.144C46.3987 26.144 45.5587 25.796 44.8627 25.1C44.1787 24.404 43.8367 23.57 43.8367 22.598C43.8367 21.614 44.1787 20.78 44.8627 20.096C45.5587 19.4 46.3987 19.052 47.3827 19.052C48.3547 19.052 49.1887 19.4 49.8847 20.096C50.5807 20.78 50.9287 21.614 50.9287 22.598C50.9287 23.57 50.5807 24.404 49.8847 25.1C49.1887 25.796 48.3547 26.144 47.3827 26.144ZM46.0867 23.876C46.4467 24.236 46.8787 24.416 47.3827 24.416C47.8867 24.416 48.3067 24.242 48.6427 23.894C48.9907 23.534 49.1647 23.102 49.1647 22.598C49.1647 22.094 48.9907 21.668 48.6427 21.32C48.3067 20.96 47.8867 20.78 47.3827 20.78C46.8787 20.78 46.4467 20.96 46.0867 21.32C45.7387 21.68 45.5647 22.106 45.5647 22.598C45.5647 23.09 45.7387 23.516 46.0867 23.876ZM37.8067 20.168C36.8227 20.168 35.9827 19.82 35.2867 19.124C34.6027 18.428 34.2607 17.594 34.2607 16.622C34.2607 15.638 34.6027 14.804 35.2867 14.12C35.9827 13.424 36.8227 13.076 37.8067 13.076C38.7787 13.076 39.6127 13.424 40.3087 14.12C41.0047 14.804 41.3527 15.638 41.3527 16.622C41.3527 17.594 41.0047 18.428 40.3087 19.124C39.6127 19.82 38.7787 20.168 37.8067 20.168ZM37.8067 18.44C38.2987 18.44 38.7187 18.26 39.0667 17.9C39.4267 17.54 39.6067 17.114 39.6067 16.622C39.6067 16.13 39.4267 15.704 39.0667 15.344C38.7187 14.984 38.2987 14.804 37.8067 14.804C37.3027 14.804 36.8767 14.984 36.5287 15.344C36.1807 15.692 36.0067 16.118 36.0067 16.622C36.0067 17.126 36.1807 17.558 36.5287 17.918C36.8767 18.266 37.3027 18.44 37.8067 18.44ZM63.0729 24.182C64.3209 24.182 65.3769 23.738 66.2409 22.85C67.1049 21.962 67.5369 20.882 67.5369 19.61C67.5369 18.338 67.1049 17.258 66.2409 16.37C65.3769 15.482 64.3209 15.038 63.0729 15.038C61.8129 15.038 60.7509 15.482 59.8869 16.37C59.0229 17.258 58.5909 18.338 58.5909 19.61C58.5909 20.882 59.0229 21.962 59.8869 22.85C60.7509 23.738 61.8129 24.182 63.0729 24.182ZM67.7529 24.29C66.4689 25.574 64.9089 26.216 63.0729 26.216C61.2369 26.216 59.6769 25.58 58.3929 24.308C57.1089 23.024 56.4669 21.458 56.4669 19.61C56.4669 17.762 57.1089 16.202 58.3929 14.93C59.6769 13.646 61.2369 13.004 63.0729 13.004C64.9089 13.004 66.4689 13.646 67.7529 14.93C69.0369 16.214 69.6789 17.774 69.6789 19.61C69.6789 21.446 69.0369 23.006 67.7529 24.29ZM71.9898 26V13.22H79.5858V15.236H74.0958V18.53H78.4158V20.528H74.0958V26H71.9898ZM81.6402 26V13.22H89.2362V15.236H83.7462V18.53H88.0662V20.528H83.7462V26H81.6402Z" fill="#14141E"/>
</svg>
