<svg width="23" height="22" viewBox="0 0 23 22" fill="none" xmlns="http://www.w3.org/2000/svg">
<path d="M11.5234 0.916504C12.1253 0.916504 12.7213 1.03506 13.2774 1.26539C13.8335 1.49572 14.3387 1.83333 14.7643 2.25893C15.1899 2.68453 15.5276 3.1898 15.7579 3.74587C15.9882 4.30195 16.1068 4.89795 16.1068 5.49984V7.33317H18.8568C19.0999 7.33317 19.333 7.42975 19.505 7.60166C19.6769 7.77356 19.7734 8.00672 19.7734 8.24984V19.2498C19.7734 19.493 19.6769 19.7261 19.505 19.898C19.333 20.0699 19.0999 20.1665 18.8568 20.1665H4.1901C3.94699 20.1665 3.71383 20.0699 3.54192 19.898C3.37001 19.7261 3.27344 19.493 3.27344 19.2498V8.24984C3.27344 8.00672 3.37001 7.77356 3.54192 7.60166C3.71383 7.42975 3.94699 7.33317 4.1901 7.33317H6.9401V5.49984C6.9401 4.28426 7.42299 3.11847 8.28253 2.25893C9.14207 1.39939 10.3079 0.916504 11.5234 0.916504ZM16.1068 10.0832H14.2734V10.9998C14.2737 11.2335 14.3632 11.4582 14.5235 11.6281C14.6839 11.798 14.9031 11.9002 15.1364 11.9139C15.3696 11.9276 15.5993 11.8517 15.7785 11.7018C15.9576 11.5518 16.0728 11.3391 16.1004 11.1071L16.1068 10.9998V10.0832ZM8.77344 10.0832H6.9401V10.9998C6.94036 11.2335 7.02983 11.4582 7.19022 11.6281C7.3506 11.798 7.56981 11.9002 7.80305 11.9139C8.03629 11.9276 8.26595 11.8517 8.44512 11.7018C8.62428 11.5518 8.73943 11.3391 8.76702 11.1071L8.77344 10.9998V10.0832ZM11.5234 2.74984C10.822 2.7498 10.147 3.0178 9.6367 3.49901C9.12635 3.98023 8.81917 4.63827 8.77802 5.3385L8.77344 5.49984V7.33317H14.2734V5.49984C14.2735 4.79839 14.0055 4.12345 13.5243 3.6131C13.043 3.10275 12.385 2.79557 11.6848 2.75442L11.5234 2.74984Z" fill="white"/>
</svg>
