<svg width="23" height="22" viewBox="0 0 23 22" fill="none" xmlns="http://www.w3.org/2000/svg">
<g clip-path="url(#clip0_773_671)">
<path d="M4.14193 11.0002H6.89193C7.37816 11.0002 7.84447 11.1933 8.18829 11.5371C8.53211 11.8809 8.72526 12.3473 8.72526 12.8335V17.4168C8.72526 17.9031 8.53211 18.3694 8.18829 18.7132C7.84447 19.057 7.37816 19.2502 6.89193 19.2502H4.14193C3.6557 19.2502 3.18938 19.057 2.84556 18.7132C2.50175 18.3694 2.30859 17.9031 2.30859 17.4168V11.0002C2.30859 5.93741 6.41251 1.8335 11.4753 1.8335C16.538 1.8335 20.6419 5.93741 20.6419 11.0002V17.4168C20.6419 17.9031 20.4488 18.3694 20.105 18.7132C19.7611 19.057 19.2948 19.2502 18.8086 19.2502H16.0586C15.5724 19.2502 15.106 19.057 14.7622 18.7132C14.4184 18.3694 14.2253 17.9031 14.2253 17.4168V12.8335C14.2253 12.3473 14.4184 11.8809 14.7622 11.5371C15.106 11.1933 15.5724 11.0002 16.0586 11.0002H18.8086C18.8086 9.05524 18.036 7.18998 16.6607 5.81471C15.2854 4.43945 13.4202 3.66683 11.4753 3.66683C9.53034 3.66683 7.66508 4.43945 6.28981 5.81471C4.91454 7.18998 4.14193 9.05524 4.14193 11.0002Z" fill="white"/>
</g>
<defs>
<clipPath id="clip0_773_671">
<rect width="22" height="22" fill="white" transform="translate(0.476562)"/>
</clipPath>
</defs>
</svg>
