<svg width="24" height="24" viewBox="0 0 24 24" fill="none" xmlns="http://www.w3.org/2000/svg">
<g clip-path="url(#clip0_943_607)">
<path d="M12 8.99921C11.2044 8.99921 10.4413 9.31528 9.87868 9.87789C9.31607 10.4405 9 11.2036 9 11.9992C9 12.7949 9.31607 13.5579 9.87868 14.1205C10.4413 14.6831 11.2044 14.9992 12 14.9992C12.7956 14.9992 13.5587 14.6831 14.1213 14.1205C14.6839 13.5579 15 12.7949 15 11.9992C15 11.2036 14.6839 10.4405 14.1213 9.87789C13.5587 9.31528 12.7956 8.99921 12 8.99921ZM12 6.99921C13.3261 6.99921 14.5979 7.52599 15.5355 8.46367C16.4732 9.40135 17 10.6731 17 11.9992C17 13.3253 16.4732 14.5971 15.5355 15.5347C14.5979 16.4724 13.3261 16.9992 12 16.9992C10.6739 16.9992 9.40215 16.4724 8.46447 15.5347C7.52678 14.5971 7 13.3253 7 11.9992C7 10.6731 7.52678 9.40135 8.46447 8.46367C9.40215 7.52599 10.6739 6.99921 12 6.99921ZM18.5 6.74921C18.5 7.08073 18.3683 7.39867 18.1339 7.63309C17.8995 7.86751 17.5815 7.99921 17.25 7.99921C16.9185 7.99921 16.6005 7.86751 16.3661 7.63309C16.1317 7.39867 16 7.08073 16 6.74921C16 6.41769 16.1317 6.09974 16.3661 5.86532C16.6005 5.6309 16.9185 5.49921 17.25 5.49921C17.5815 5.49921 17.8995 5.6309 18.1339 5.86532C18.3683 6.09974 18.5 6.41769 18.5 6.74921ZM12 3.99921C9.526 3.99921 9.122 4.00621 7.971 4.05721C7.187 4.09421 6.661 4.19921 6.173 4.38921C5.739 4.55721 5.426 4.75821 5.093 5.09221C4.78001 5.39461 4.53935 5.76379 4.389 6.17221C4.199 6.66221 4.094 7.18721 4.058 7.97021C4.006 9.07421 4 9.46021 4 11.9992C4 14.4732 4.007 14.8772 4.058 16.0282C4.095 16.8112 4.2 17.3382 4.389 17.8252C4.559 18.2602 4.759 18.5732 5.091 18.9052C5.428 19.2412 5.741 19.4422 6.171 19.6082C6.665 19.7992 7.191 19.9052 7.971 19.9412C9.075 19.9932 9.461 19.9992 12 19.9992C14.474 19.9992 14.878 19.9922 16.029 19.9412C16.811 19.9042 17.338 19.7992 17.826 19.6102C18.259 19.4412 18.574 19.2402 18.906 18.9082C19.243 18.5712 19.444 18.2582 19.61 17.8282C19.8 17.3352 19.906 16.8082 19.942 16.0282C19.994 14.9242 20 14.5382 20 11.9992C20 9.52521 19.993 9.12121 19.942 7.97021C19.905 7.18821 19.8 6.66021 19.61 6.17221C19.4593 5.76421 19.2191 5.39517 18.907 5.09221C18.6047 4.77905 18.2355 4.53837 17.827 4.38821C17.337 4.19821 16.811 4.09321 16.029 4.05721C14.925 4.00521 14.539 3.99921 12 3.99921ZM12 1.99921C14.717 1.99921 15.056 2.00921 16.122 2.05921C17.187 2.10921 17.912 2.27621 18.55 2.52421C19.21 2.77821 19.766 3.12221 20.322 3.67721C20.8305 4.1771 21.224 4.7818 21.475 5.44921C21.722 6.08621 21.89 6.81221 21.94 7.87721C21.987 8.94321 22 9.28221 22 11.9992C22 14.7162 21.99 15.0552 21.94 16.1212C21.89 17.1862 21.722 17.9112 21.475 18.5492C21.2247 19.217 20.8311 19.8218 20.322 20.3212C19.822 20.8295 19.2173 21.223 18.55 21.4742C17.913 21.7212 17.187 21.8892 16.122 21.9392C15.056 21.9862 14.717 21.9992 12 21.9992C9.283 21.9992 8.944 21.9892 7.878 21.9392C6.813 21.8892 6.088 21.7212 5.45 21.4742C4.78233 21.2237 4.17753 20.8302 3.678 20.3212C3.16941 19.8214 2.77593 19.2167 2.525 18.5492C2.277 17.9122 2.11 17.1862 2.06 16.1212C2.013 15.0552 2 14.7162 2 11.9992C2 9.28221 2.01 8.94321 2.06 7.87721C2.11 6.81121 2.277 6.08721 2.525 5.44921C2.77524 4.78139 3.1688 4.17653 3.678 3.67721C4.17767 3.16844 4.78243 2.77494 5.45 2.52421C6.088 2.27621 6.812 2.10921 7.878 2.05921C8.944 2.01221 9.283 1.99921 12 1.99921Z" fill="white"/>
</g>
<defs>
<clipPath id="clip0_943_607">
<rect width="24" height="24" fill="white"/>
</clipPath>
</defs>
</svg>
