<svg width="23" height="22" viewBox="0 0 23 22" fill="none" xmlns="http://www.w3.org/2000/svg">
<g clip-path="url(#clip0_773_665)">
<path d="M17.3102 15.9171L11.4766 21.7508L5.6429 15.9171C4.48913 14.7633 3.7034 13.2933 3.38508 11.693C3.06676 10.0926 3.23014 8.43382 3.85457 6.92633C4.479 5.41885 5.53642 4.13038 6.89312 3.22386C8.24983 2.31735 9.84487 1.8335 11.4766 1.8335C13.1083 1.8335 14.7033 2.31735 16.06 3.22386C17.4167 4.13038 18.4741 5.41885 19.0986 6.92633C19.723 8.43382 19.8864 10.0926 19.5681 11.693C19.2497 13.2933 18.464 14.7633 17.3102 15.9171ZM11.4766 11.9168C11.9628 11.9168 12.4291 11.7236 12.7729 11.3798C13.1167 11.036 13.3099 10.5697 13.3099 10.0834C13.3099 9.59719 13.1167 9.13088 12.7729 8.78706C12.4291 8.44325 11.9628 8.25009 11.4766 8.25009C10.9903 8.25009 10.524 8.44325 10.1802 8.78706C9.83639 9.13088 9.64323 9.59719 9.64323 10.0834C9.64323 10.5697 9.83639 11.036 10.1802 11.3798C10.524 11.7236 10.9903 11.9168 11.4766 11.9168Z" fill="white"/>
</g>
<defs>
<clipPath id="clip0_773_665">
<rect width="22" height="22" fill="white" transform="translate(0.476562)"/>
</clipPath>
</defs>
</svg>
