<svg width="40" height="40" viewBox="0 0 40 40" fill="none" xmlns="http://www.w3.org/2000/svg">
<rect width="40" height="40" rx="20" fill="#FDDC2E"/>
<g clip-path="url(#clip0_906_1023)">
<path d="M20 12.6667C20.4377 12.6667 20.8712 12.7529 21.2756 12.9204C21.68 13.0879 22.0475 13.3334 22.357 13.643C22.6666 13.9525 22.9121 14.32 23.0796 14.7244C23.2471 15.1288 23.3333 15.5623 23.3333 16V17.3333H25.3333C25.5101 17.3333 25.6797 17.4036 25.8047 17.5286C25.9298 17.6536 26 17.8232 26 18V26C26 26.1768 25.9298 26.3464 25.8047 26.4714C25.6797 26.5964 25.5101 26.6667 25.3333 26.6667H14.6667C14.4899 26.6667 14.3203 26.5964 14.1953 26.4714C14.0702 26.3464 14 26.1768 14 26V18C14 17.8232 14.0702 17.6536 14.1953 17.5286C14.3203 17.4036 14.4899 17.3333 14.6667 17.3333H16.6667V16C16.6667 15.1159 17.0179 14.2681 17.643 13.643C18.2681 13.0178 19.1159 12.6667 20 12.6667ZM23.3333 19.3333H22V20C22.0002 20.1699 22.0653 20.3333 22.1819 20.4569C22.2985 20.5805 22.458 20.6548 22.6276 20.6648C22.7972 20.6747 22.9643 20.6195 23.0946 20.5105C23.2249 20.4014 23.3086 20.2467 23.3287 20.078L23.3333 20V19.3333ZM18 19.3333H16.6667V20C16.6669 20.1699 16.7319 20.3333 16.8486 20.4569C16.9652 20.5805 17.1246 20.6548 17.2943 20.6648C17.4639 20.6747 17.6309 20.6195 17.7612 20.5105C17.8915 20.4014 17.9753 20.2467 17.9953 20.078L18 20V19.3333ZM20 14C19.4899 14 18.999 14.1949 18.6278 14.5448C18.2567 14.8948 18.0333 15.3734 18.0033 15.8827L18 16V17.3333H22V16C22 15.4898 21.8051 14.999 21.4551 14.6278C21.1052 14.2567 20.6266 14.0333 20.1173 14.0033L20 14Z" fill="#14141E"/>
</g>
<defs>
<clipPath id="clip0_906_1023">
<rect width="16" height="16" fill="white" transform="translate(12 12)"/>
</clipPath>
</defs>
</svg>
