<svg width="44" height="45" viewBox="0 0 44 45" fill="none" xmlns="http://www.w3.org/2000/svg">
<rect y="5" width="40" height="40" rx="20" fill="#FDDC2E"/>
<g clip-path="url(#clip0_906_57)">
<path d="M20 17.6667C20.4377 17.6667 20.8712 17.7529 21.2756 17.9204C21.68 18.0879 22.0475 18.3334 22.357 18.643C22.6666 18.9525 22.9121 19.32 23.0796 19.7244C23.2471 20.1288 23.3333 20.5623 23.3333 21V22.3333H25.3333C25.5101 22.3333 25.6797 22.4036 25.8047 22.5286C25.9298 22.6536 26 22.8232 26 23V31C26 31.1768 25.9298 31.3464 25.8047 31.4714C25.6797 31.5964 25.5101 31.6667 25.3333 31.6667H14.6667C14.4899 31.6667 14.3203 31.5964 14.1953 31.4714C14.0702 31.3464 14 31.1768 14 31V23C14 22.8232 14.0702 22.6536 14.1953 22.5286C14.3203 22.4036 14.4899 22.3333 14.6667 22.3333H16.6667V21C16.6667 20.1159 17.0179 19.2681 17.643 18.643C18.2681 18.0178 19.1159 17.6667 20 17.6667ZM23.3333 24.3333H22V25C22.0002 25.1699 22.0653 25.3333 22.1819 25.4569C22.2985 25.5805 22.458 25.6548 22.6276 25.6648C22.7972 25.6747 22.9643 25.6195 23.0946 25.5105C23.2249 25.4014 23.3086 25.2467 23.3287 25.078L23.3333 25V24.3333ZM18 24.3333H16.6667V25C16.6669 25.1699 16.7319 25.3333 16.8486 25.4569C16.9652 25.5805 17.1246 25.6548 17.2943 25.6648C17.4639 25.6747 17.6309 25.6195 17.7612 25.5105C17.8915 25.4014 17.9753 25.2467 17.9953 25.078L18 25V24.3333ZM20 19C19.4899 19 18.999 19.1949 18.6278 19.5448C18.2567 19.8948 18.0333 20.3734 18.0033 20.8827L18 21V22.3333H22V21C22 20.4898 21.8051 19.999 21.4551 19.6278C21.1052 19.2567 20.6266 19.0333 20.1173 19.0033L20 19Z" fill="#14141E"/>
</g>
<rect x="24" width="20" height="20" rx="10" fill="#FA7921"/>
<path d="M36.8 12.38V14H30.992V13.436C30.992 13.204 31.016 12.98 31.064 12.764C31.112 12.548 31.168 12.36 31.232 12.2C31.304 12.032 31.408 11.86 31.544 11.684C31.68 11.508 31.796 11.364 31.892 11.252C31.988 11.14 32.132 11.004 32.324 10.844C32.524 10.684 32.676 10.568 32.78 10.496C32.884 10.416 33.048 10.3 33.272 10.148C33.496 9.988 33.652 9.876 33.74 9.812C34.636 9.188 35.084 8.604 35.084 8.06C35.084 7.74 34.984 7.476 34.784 7.268C34.584 7.06 34.308 6.956 33.956 6.956C33.58 6.956 33.268 7.072 33.02 7.304C32.78 7.528 32.664 7.812 32.672 8.156H31.016C31.016 7.324 31.296 6.648 31.856 6.128C32.424 5.6 33.136 5.336 33.992 5.336C34.752 5.336 35.396 5.568 35.924 6.032C36.46 6.496 36.728 7.14 36.728 7.964C36.728 8.644 36.58 9.204 36.284 9.644C35.996 10.076 35.544 10.516 34.928 10.964C34.872 11.004 34.728 11.104 34.496 11.264C34.264 11.416 34.088 11.536 33.968 11.624C33.848 11.712 33.712 11.828 33.56 11.972C33.416 12.116 33.32 12.252 33.272 12.38H36.8Z" fill="white"/>
<defs>
<clipPath id="clip0_906_57">
<rect width="16" height="16" fill="white" transform="translate(12 17)"/>
</clipPath>
</defs>
</svg>
