<svg width="34" height="34" viewBox="0 0 34 34" fill="none" xmlns="http://www.w3.org/2000/svg">
<rect x="1" y="1" width="32" height="32" rx="16" fill="#FA7921"/>
<path d="M14.968 21.944C14.2 22.7547 13.2133 23.16 12.008 23.16C10.8027 23.16 9.816 22.7547 9.048 21.944C8.28 21.1227 7.896 20.072 7.896 18.792V15.816C7.896 14.536 8.28 13.4907 9.048 12.68C9.816 11.8587 10.8027 11.448 12.008 11.448C13.2133 11.448 14.2 11.8587 14.968 12.68C15.7467 13.4907 16.136 14.536 16.136 15.816V18.792C16.136 20.072 15.7467 21.1227 14.968 21.944ZM12.008 21.432C12.7227 21.432 13.2933 21.1973 13.72 20.728C14.1573 20.2587 14.376 19.6133 14.376 18.792V15.816C14.376 14.9947 14.1573 14.3493 13.72 13.88C13.2933 13.4107 12.7227 13.176 12.008 13.176C11.304 13.176 10.7333 13.4107 10.296 13.88C9.86933 14.3493 9.656 14.9947 9.656 15.816V18.792C9.656 19.6133 9.86933 20.2587 10.296 20.728C10.7333 21.1973 11.304 21.432 12.008 21.432ZM24.2796 22.072C23.5543 22.7973 22.621 23.16 21.4796 23.16C20.3383 23.16 19.405 22.7973 18.6796 22.072C17.9543 21.336 17.5916 20.424 17.5916 19.336C17.5916 18.8133 17.693 18.3333 17.8956 17.896C18.109 17.4587 18.4343 16.9573 18.8716 16.392L22.6636 11.64H24.8716L21.6716 15.672H21.8476C22.7756 15.672 23.597 16.024 24.3116 16.728C25.0263 17.4213 25.3836 18.2853 25.3836 19.32C25.3836 20.4187 25.0156 21.336 24.2796 22.072ZM19.9596 20.856C20.365 21.2613 20.8716 21.464 21.4796 21.464C22.0876 21.464 22.5943 21.2613 22.9996 20.856C23.405 20.44 23.6076 19.9333 23.6076 19.336C23.6076 18.7493 23.3996 18.248 22.9836 17.832C22.5783 17.416 22.077 17.208 21.4796 17.208C20.8823 17.208 20.381 17.416 19.9756 17.832C19.5703 18.248 19.3676 18.7493 19.3676 19.336C19.3676 19.9333 19.565 20.44 19.9596 20.856Z" fill="white"/>
<rect x="1" y="1" width="32" height="32" rx="16" stroke="white" stroke-width="2"/>
</svg>
