<svg width="23" height="22" viewBox="0 0 23 22" fill="none" xmlns="http://www.w3.org/2000/svg">
<g clip-path="url(#clip0_773_762)">
<path d="M9.39785 6.93162L11.5218 9.05646L17.3646 3.21271C17.5348 3.04239 17.737 2.90728 17.9595 2.8151C18.1819 2.72292 18.4204 2.67547 18.6612 2.67547C18.902 2.67547 19.1405 2.72292 19.363 2.8151C19.5855 2.90728 19.7876 3.04239 19.9578 3.21271L20.6059 3.86079L9.39785 15.068C9.73005 15.8514 9.77943 16.7259 9.53753 17.5418C9.29563 18.3576 8.77751 19.0639 8.07196 19.5396C7.36642 20.0153 6.51739 20.2308 5.67038 20.1492C4.82336 20.0675 4.03112 19.6938 3.42942 19.0921C2.82771 18.4904 2.45402 17.6982 2.37239 16.8512C2.29075 16.0042 2.50626 15.1551 2.98196 14.4496C3.45767 13.744 4.16397 13.2259 4.97979 12.984C5.79562 12.7421 6.67019 12.7915 7.4536 13.1237L9.57843 10.9998L7.4536 8.87587C6.67019 9.20808 5.79562 9.25746 4.97979 9.01556C4.16397 8.77366 3.45767 8.25554 2.98196 7.54999C2.50626 6.84445 2.29075 5.99541 2.37239 5.1484C2.45402 4.30139 2.82771 3.50915 3.42942 2.90744C4.03112 2.30574 4.82336 1.93205 5.67038 1.85041C6.51739 1.76878 7.36642 1.98428 8.07196 2.45999C8.77751 2.9357 9.29563 3.64199 9.53753 4.45782C9.77943 5.27365 9.73005 6.14821 9.39785 6.93162ZM6.02176 7.33312C6.50799 7.33312 6.97431 7.13997 7.31813 6.79615C7.66194 6.45234 7.8551 5.98602 7.8551 5.49979C7.8551 5.01356 7.66194 4.54724 7.31813 4.20343C6.97431 3.85961 6.50799 3.66646 6.02176 3.66646C5.53553 3.66646 5.06922 3.85961 4.7254 4.20343C4.38158 4.54724 4.18843 5.01356 4.18843 5.49979C4.18843 5.98602 4.38158 6.45234 4.7254 6.79615C5.06922 7.13997 5.53553 7.33312 6.02176 7.33312ZM6.02176 18.3331C6.50799 18.3331 6.97431 18.14 7.31813 17.7962C7.66194 17.4523 7.8551 16.986 7.8551 16.4998C7.8551 16.0136 7.66194 15.5472 7.31813 15.2034C6.97431 14.8596 6.50799 14.6665 6.02176 14.6665C5.53553 14.6665 5.06922 14.8596 4.7254 15.2034C4.38158 15.5472 4.18843 16.0136 4.18843 16.4998C4.18843 16.986 4.38158 17.4523 4.7254 17.7962C5.06922 18.14 5.53553 18.3331 6.02176 18.3331ZM14.7622 12.295L20.6059 18.1397L19.9578 18.7878C19.7876 18.9581 19.5855 19.0932 19.363 19.1854C19.1405 19.2776 18.902 19.325 18.6612 19.325C18.4204 19.325 18.1819 19.2776 17.9595 19.1854C17.737 19.0932 17.5348 18.9581 17.3646 18.7878L12.8179 14.2402L14.7613 12.295H14.7622Z" fill="white"/>
</g>
<defs>
<clipPath id="clip0_773_762">
<rect width="22" height="22" fill="white" transform="translate(0.523438)"/>
</clipPath>
</defs>
</svg>
