<svg width="24" height="24" viewBox="0 0 24 24" fill="none" xmlns="http://www.w3.org/2000/svg">
<g clip-path="url(#clip0_943_601)">
<path d="M22.1643 5.6569C21.4008 5.9946 20.5912 6.21638 19.7623 6.3149C20.636 5.79234 21.29 4.96992 21.6023 4.0009C20.7823 4.4889 19.8833 4.8309 18.9463 5.0159C18.3169 4.34248 17.4826 3.89587 16.5732 3.74549C15.6638 3.59511 14.7302 3.74939 13.9175 4.18436C13.1048 4.61932 12.4586 5.31059 12.0794 6.1507C11.7001 6.9908 11.609 7.93268 11.8202 8.8299C10.1574 8.74656 8.53058 8.31443 7.04554 7.56157C5.56049 6.80871 4.25038 5.75195 3.20025 4.4599C2.82854 5.09835 2.63321 5.82413 2.63425 6.5629C2.63425 8.0129 3.37225 9.2939 4.49425 10.0439C3.83026 10.023 3.18088 9.84368 2.60025 9.5209V9.5729C2.60045 10.5386 2.93462 11.4745 3.5461 12.222C4.15758 12.9694 5.00873 13.4824 5.95525 13.6739C5.33886 13.8409 4.69256 13.8656 4.06525 13.7459C4.33212 14.5771 4.85226 15.3041 5.55284 15.825C6.25343 16.3459 7.09938 16.6347 7.97225 16.6509C7.10473 17.3322 6.11143 17.8359 5.04913 18.1331C3.98683 18.4303 2.87638 18.5152 1.78125 18.3829C3.69295 19.6123 5.91835 20.265 8.19125 20.2629C15.8842 20.2629 20.0913 13.8899 20.0913 8.3629C20.0913 8.1829 20.0863 8.0009 20.0783 7.8229C20.8971 7.23107 21.6038 6.49792 22.1653 5.6579L22.1643 5.6569Z" fill="white"/>
</g>
<defs>
<clipPath id="clip0_943_601">
<rect width="24" height="24" fill="white"/>
</clipPath>
</defs>
</svg>
