<svg width="24" height="24" viewBox="0 0 24 24" fill="none" xmlns="http://www.w3.org/2000/svg">
<g clip-path="url(#clip0_943_604)">
<path d="M21.543 6.49879C22 8.28079 22 12.0008 22 12.0008C22 12.0008 22 15.7208 21.543 17.5028C21.289 18.4878 20.546 19.2628 19.605 19.5248C17.896 20.0008 12 20.0008 12 20.0008C12 20.0008 6.107 20.0008 4.395 19.5248C3.45 19.2588 2.708 18.4848 2.457 17.5028C2 15.7208 2 12.0008 2 12.0008C2 12.0008 2 8.28079 2.457 6.49879C2.711 5.51379 3.454 4.73879 4.395 4.47679C6.107 4.00079 12 4.00079 12 4.00079C12 4.00079 17.896 4.00079 19.605 4.47679C20.55 4.74279 21.292 5.51679 21.543 6.49879ZM10 15.5008L16 12.0008L10 8.50079V15.5008Z" fill="white"/>
</g>
<defs>
<clipPath id="clip0_943_604">
<rect width="24" height="24" fill="white"/>
</clipPath>
</defs>
</svg>
